<svg width="54" height="54" viewBox="0 0 54 54" fill="none" xmlns="http://www.w3.org/2000/svg">
<path d="M49.464 22.5C49.3807 19.5503 49.1017 17.6692 48.1567 16.065C46.8112 13.7812 44.3902 12.51 39.5505 9.972L35.0505 7.6095C31.0995 5.53725 29.124 4.5 27 4.5C24.876 4.5 22.9005 5.535 18.9495 7.6095L14.4495 9.972C9.60975 12.51 7.18875 13.7812 5.84325 16.065C4.5 18.3465 4.5 21.1883 4.5 26.8695V27.1327C4.5 32.8117 4.5 35.6535 5.84325 37.935C7.18875 40.2188 9.60975 41.49 14.4495 44.0303L18.9495 46.3905C22.9005 48.4627 24.876 49.5 27 49.5C29.124 49.5 31.0995 48.465 35.0505 46.3905L39.5505 44.028C44.3902 41.4878 46.8112 40.2188 48.1567 37.935C49.1017 36.3308 49.3807 34.4497 49.464 31.5M47.25 16.875L38.25 21.375M38.25 21.375L37.125 21.9375L27 27M38.25 21.375V29.25M38.25 21.375L16.875 10.125M27 27L6.75 16.875M27 27V48.375" stroke="#7467FF" stroke-width="4" stroke-linecap="round"/>
</svg>
