<svg width="58" height="58" viewBox="0 0 58 58" fill="none" xmlns="http://www.w3.org/2000/svg">
<path fill-rule="evenodd" clip-rule="evenodd" d="M29.1813 36.2498C29.5972 34.2012 30.7087 32.3593 32.3273 31.0364C33.9459 29.7134 35.972 28.9907 38.0625 28.9907C40.153 28.9907 42.1791 29.7134 43.7977 31.0364C45.4163 32.3593 46.5278 34.2012 46.9437 36.2498H52.5625C53.0432 36.2498 53.5042 36.4408 53.8441 36.7807C54.184 37.1206 54.375 37.5816 54.375 38.0623C54.375 38.543 54.184 39.004 53.8441 39.3439C53.5042 39.6838 53.0432 39.8748 52.5625 39.8748H46.9437C46.5278 41.9235 45.4163 43.7653 43.7977 45.0882C42.1791 46.4112 40.153 47.1339 38.0625 47.1339C35.972 47.1339 33.9459 46.4112 32.3273 45.0882C30.7087 43.7653 29.5972 41.9235 29.1813 39.8748H5.4375C4.9568 39.8748 4.49578 39.6838 4.15587 39.3439C3.81596 39.004 3.625 38.543 3.625 38.0623C3.625 37.5816 3.81596 37.1206 4.15587 36.7807C4.49578 36.4408 4.9568 36.2498 5.4375 36.2498H29.1813ZM28.8187 21.7498C28.4028 23.7985 27.2913 25.6403 25.6727 26.9632C24.0541 28.2862 22.028 29.0089 19.9375 29.0089C17.847 29.0089 15.8209 28.2862 14.2023 26.9632C12.5837 25.6403 11.4722 23.7985 11.0562 21.7498H5.4375C4.9568 21.7498 4.49578 21.5588 4.15587 21.2189C3.81596 20.879 3.625 20.418 3.625 19.9373C3.625 19.4566 3.81596 18.9956 4.15587 18.6557C4.49578 18.3158 4.9568 18.1248 5.4375 18.1248H11.0562C11.4722 16.0762 12.5837 14.2343 14.2023 12.9114C15.8209 11.5884 17.847 10.8657 19.9375 10.8657C22.028 10.8657 24.0541 11.5884 25.6727 12.9114C27.2913 14.2343 28.4028 16.0762 28.8187 18.1248H52.5625C53.0432 18.1248 53.5042 18.3158 53.8441 18.6557C54.184 18.9956 54.375 19.4566 54.375 19.9373C54.375 20.418 54.184 20.879 53.8441 21.2189C53.5042 21.5588 53.0432 21.7498 52.5625 21.7498H28.8187ZM14.5 19.9373C14.5 20.6514 14.6406 21.3584 14.9139 22.0181C15.1872 22.6779 15.5877 23.2773 16.0926 23.7822C16.5975 24.2871 17.197 24.6876 17.8567 24.9609C18.5164 25.2342 19.2234 25.3748 19.9375 25.3748C20.6516 25.3748 21.3586 25.2342 22.0183 24.9609C22.678 24.6876 23.2775 24.2871 23.7824 23.7822C24.2873 23.2773 24.6878 22.6779 24.9611 22.0181C25.2344 21.3584 25.375 20.6514 25.375 19.9373C25.375 18.4952 24.8021 17.1121 23.7824 16.0924C22.7627 15.0727 21.3796 14.4998 19.9375 14.4998C18.4954 14.4998 17.1123 15.0727 16.0926 16.0924C15.0729 17.1121 14.5 18.4952 14.5 19.9373ZM43.5 38.0623C43.5 36.6202 42.9271 35.2371 41.9074 34.2174C40.8877 33.1977 39.5046 32.6248 38.0625 32.6248C36.6204 32.6248 35.2373 33.1977 34.2176 34.2174C33.1979 35.2371 32.625 36.6202 32.625 38.0623C32.625 39.5044 33.1979 40.8875 34.2176 41.9072C35.2373 42.9269 36.6204 43.4998 38.0625 43.4998C39.5046 43.4998 40.8877 42.9269 41.9074 41.9072C42.9271 40.8875 43.5 39.5044 43.5 38.0623Z" fill="#7467FF"/>
</svg>
