<svg width="54" height="54" viewBox="0 0 54 54" fill="none" xmlns="http://www.w3.org/2000/svg">
<path d="M45.6673 6.97861C45.6677 7.97016 45.4469 8.94932 45.021 9.84475C44.5951 10.7402 43.9748 11.5293 43.2054 12.1547C42.4359 12.7801 41.5366 13.226 40.5731 13.4598C39.6095 13.6937 38.6059 13.7097 37.6353 13.5066L34.222 19.1519C35.3278 20.1688 36.2064 21.4079 36.8001 22.7879C37.3938 24.1679 37.6894 25.6578 37.6673 27.1599L41.1233 27.8533C41.8755 26.4494 43.1054 25.3613 44.5904 24.7857C46.0754 24.2102 47.7174 24.1852 49.2192 24.7155C50.721 25.2457 51.9833 26.2961 52.7777 27.6765C53.5721 29.0568 53.8461 30.676 53.5501 32.2409C53.2541 33.8058 52.4077 35.213 51.164 36.2078C49.9203 37.2027 48.3615 37.7194 46.7698 37.6645C45.1781 37.6096 43.6587 36.9867 42.4865 35.9085C41.3143 34.8304 40.5668 33.3682 40.3793 31.7866L36.862 31.0773C35.9455 33.2968 34.3069 35.1421 32.2113 36.3146L33.5313 40.3439H33.6673C35.2543 40.3442 36.7892 40.9106 37.9959 41.9413C39.2027 42.972 40.0022 44.3994 40.2507 45.9668C40.4991 47.5342 40.1803 49.1389 39.3515 50.4923C38.5227 51.8457 37.2382 52.859 35.7291 53.3501C34.22 53.8412 32.5852 53.7778 31.1186 53.1713C29.6521 52.5649 28.45 51.4551 27.7284 50.0416C27.0069 48.6281 26.8133 47.0036 27.1823 45.4601C27.5514 43.9166 28.459 42.5554 29.742 41.6213L28.4167 37.5786C26.5213 37.8324 24.5925 37.572 22.8323 36.8247C21.0721 36.0773 19.5451 34.8705 18.4113 33.3306L13.6273 35.5919C13.654 35.8373 13.6673 36.0862 13.6673 36.3386C13.6669 37.8992 13.119 39.4102 12.1191 40.6083C11.1192 41.8065 9.73066 42.6159 8.19535 42.8955C6.66004 43.1752 5.07527 42.9074 3.71711 42.1388C2.35895 41.3701 1.31348 40.1494 0.762812 38.6892C0.212147 37.229 0.191189 35.6219 0.70359 34.1479C1.21599 32.6738 2.22928 31.4262 3.56693 30.6224C4.90459 29.8186 6.48183 29.5096 8.02391 29.7491C9.566 29.9887 10.9752 30.7616 12.006 31.9333L16.6833 29.7226C16.2521 28.0854 16.2168 26.369 16.5804 24.7155C16.9439 23.0619 17.6958 21.5187 18.774 20.2133L16.1313 17.1999C14.6514 17.7885 13.0097 17.8278 11.5033 17.3108C9.99697 16.7938 8.72545 15.7546 7.91894 14.3812C7.11242 13.0079 6.8242 11.3912 7.10643 9.8238C7.38867 8.25637 8.22272 6.84177 9.45762 5.83603C10.6925 4.83028 12.2467 4.29986 13.8388 4.34076C15.4309 4.38166 16.9558 4.99117 18.1374 6.05899C19.319 7.12681 20.0793 8.58237 20.2807 10.1622C20.4821 11.7421 20.1113 13.3418 19.2353 14.6719L21.854 17.6586C23.4305 16.7906 25.201 16.3356 27.0007 16.3359C28.3473 16.3359 29.638 16.5839 30.8247 17.0399L34.1447 11.5466C33.3994 10.7543 32.8593 9.79173 32.5716 8.74279C32.2838 7.69385 32.257 6.59042 32.4936 5.52877C32.7302 4.46711 33.223 3.47947 33.929 2.65199C34.6349 1.82452 35.5326 1.18235 36.5438 0.781492C37.5549 0.380639 38.6488 0.233279 39.7299 0.352268C40.8111 0.471258 41.8468 0.852981 42.7465 1.46414C43.6463 2.0753 44.3829 2.89733 44.892 3.85853C45.4011 4.81973 45.6673 5.8909 45.6673 6.97861ZM41.6673 6.97861C41.6673 6.27136 41.3864 5.59308 40.8863 5.09299C40.3862 4.59289 39.7079 4.31194 39.0007 4.31194C38.2934 4.31194 37.6151 4.59289 37.115 5.09299C36.6149 5.59308 36.334 6.27136 36.334 6.97861C36.334 7.68585 36.6149 8.36413 37.115 8.86422C37.6151 9.36432 38.2934 9.64527 39.0007 9.64527C39.7079 9.64527 40.3862 9.36432 40.8863 8.86422C41.3864 8.36413 41.6673 7.68585 41.6673 6.97861ZM13.6673 13.6693C14.3746 13.6693 15.0528 13.3883 15.5529 12.8882C16.053 12.3881 16.334 11.7098 16.334 11.0026C16.334 10.2954 16.053 9.61708 15.5529 9.11699C15.0528 8.61689 14.3746 8.33594 13.6673 8.33594C12.9601 8.33594 12.2818 8.61689 11.7817 9.11699C11.2816 9.61708 11.0007 10.2954 11.0007 11.0026C11.0007 11.7098 11.2816 12.3881 11.7817 12.8882C12.2818 13.3883 12.9601 13.6693 13.6673 13.6693ZM27.0007 33.6693C28.7688 33.6693 30.4645 32.9669 31.7147 31.7167C32.9649 30.4664 33.6673 28.7707 33.6673 27.0026C33.6673 25.2345 32.9649 23.5388 31.7147 22.2886C30.4645 21.0383 28.7688 20.3359 27.0007 20.3359C25.2325 20.3359 23.5368 21.0383 22.2866 22.2886C21.0364 23.5388 20.334 25.2345 20.334 27.0026C20.334 28.7707 21.0364 30.4664 22.2866 31.7167C23.5368 32.9669 25.2325 33.6693 27.0007 33.6693ZM9.66732 36.3359C9.66732 35.6287 9.38637 34.9504 8.88627 34.4503C8.38617 33.9502 7.7079 33.6693 7.00065 33.6693C6.29341 33.6693 5.61513 33.9502 5.11503 34.4503C4.61494 34.9504 4.33398 35.6287 4.33398 36.3359C4.33398 37.0432 4.61494 37.7215 5.11503 38.2216C5.61513 38.7217 6.29341 39.0026 7.00065 39.0026C7.7079 39.0026 8.38617 38.7217 8.88627 38.2216C9.38637 37.7215 9.66732 37.0432 9.66732 36.3359ZM36.334 47.0079C36.334 46.3007 36.053 45.6224 35.5529 45.1223C35.0528 44.6222 34.3746 44.3413 33.6673 44.3413C32.9601 44.3413 32.2818 44.6222 31.7817 45.1223C31.2816 45.6224 31.0007 46.3007 31.0007 47.0079C31.0007 47.7152 31.2816 48.3935 31.7817 48.8936C32.2818 49.3937 32.9601 49.6746 33.6673 49.6746C34.3746 49.6746 35.0528 49.3937 35.5529 48.8936C36.053 48.3935 36.334 47.7152 36.334 47.0079ZM47.0007 33.6693C47.7079 33.6693 48.3862 33.3883 48.8863 32.8882C49.3864 32.3881 49.6673 31.7099 49.6673 31.0026C49.6673 30.2954 49.3864 29.6171 48.8863 29.117C48.3862 28.6169 47.7079 28.3359 47.0007 28.3359C46.2934 28.3359 45.6151 28.6169 45.115 29.117C44.6149 29.6171 44.334 30.2954 44.334 31.0026C44.334 31.7099 44.6149 32.3881 45.115 32.8882C45.6151 33.3883 46.2934 33.6693 47.0007 33.6693Z" fill="#7467FF"/>
</svg>
