<svg width="54" height="54" viewBox="0 0 54 54" fill="none" xmlns="http://www.w3.org/2000/svg">
<path d="M50.8887 5.80078C51.3457 6.5918 51.7588 7.34766 52.1279 8.06836C52.4971 8.78906 52.8311 9.51855 53.1299 10.2568C53.4287 10.9951 53.6396 11.7598 53.7627 12.5508C53.8857 13.3418 53.9648 14.2207 54 15.1875C54 16.5762 53.8242 17.9121 53.4727 19.1953C53.1211 20.4785 52.6113 21.6914 51.9434 22.834C51.2754 23.9766 50.4756 25.0049 49.5439 25.9189C48.6123 26.833 47.584 27.624 46.459 28.292C45.334 28.96 44.1299 29.4697 42.8467 29.8213C41.5635 30.1729 40.2188 30.3574 38.8125 30.375C38.4082 30.375 38.0039 30.3574 37.5996 30.3223C37.1953 30.2871 36.7822 30.2344 36.3604 30.1641L15.1084 51.416C14.2646 52.2598 13.3066 52.9014 12.2344 53.3408C11.1621 53.7803 10.0283 54 8.83301 54C7.62012 54 6.47754 53.7715 5.40527 53.3145C4.33301 52.8574 3.40137 52.2246 2.61035 51.416C1.81934 50.6074 1.18652 49.667 0.711914 48.5947C0.237305 47.5225 0 46.3799 0 45.167C0 43.9893 0.219727 42.8643 0.65918 41.792C1.09863 40.7197 1.74023 39.7529 2.58398 38.8916L23.8359 17.6396C23.7656 17.2354 23.7129 16.8311 23.6777 16.4268C23.6426 16.0225 23.625 15.6094 23.625 15.1875C23.625 13.7988 23.8008 12.4629 24.1523 11.1797C24.5039 9.89648 25.0137 8.68359 25.6816 7.54102C26.3496 6.39844 27.1494 5.37012 28.0811 4.45605C29.0127 3.54199 30.041 2.75098 31.166 2.08301C32.291 1.41504 33.4951 0.905273 34.7783 0.553711C36.0615 0.202148 37.4062 0.0175781 38.8125 0C39.7617 0 40.6318 0.0703125 41.4229 0.210938C42.2139 0.351562 42.9873 0.571289 43.7432 0.870117C44.499 1.16895 45.2285 1.49414 45.9316 1.8457C46.6348 2.19727 47.3906 2.61914 48.1992 3.11133L37.8105 13.5L40.5 16.1895L50.8887 5.80078ZM38.8125 27C40.4473 27 41.9766 26.6924 43.4004 26.0771C44.8242 25.4619 46.0723 24.6182 47.1445 23.5459C48.2168 22.4736 49.0605 21.2256 49.6758 19.8018C50.291 18.3779 50.6074 16.8398 50.625 15.1875C50.625 13.9043 50.4141 12.665 49.9922 11.4697L40.5 20.9355L33.0645 13.5L42.5303 4.00781C41.335 3.58594 40.0957 3.375 38.8125 3.375C37.1777 3.375 35.6484 3.68262 34.2246 4.29785C32.8008 4.91309 31.5527 5.75684 30.4805 6.8291C29.4082 7.90137 28.5645 9.14941 27.9492 10.5732C27.334 11.9971 27.0176 13.5352 27 15.1875C27 15.8027 27.0527 16.4004 27.1582 16.9805C27.2637 17.5605 27.3867 18.1406 27.5273 18.7207L4.9834 41.291C4.47363 41.8008 4.07812 42.3896 3.79688 43.0576C3.51562 43.7256 3.375 44.4287 3.375 45.167C3.375 45.9053 3.51562 46.6084 3.79688 47.2764C4.07812 47.9443 4.47363 48.5244 4.9834 49.0166C5.49316 49.5088 6.07324 49.8955 6.72363 50.1768C7.37402 50.458 8.07715 50.6074 8.83301 50.625C9.57129 50.625 10.2744 50.4844 10.9424 50.2031C11.6104 49.9219 12.1992 49.5264 12.709 49.0166L35.2793 26.4727C35.8594 26.6133 36.4395 26.7363 37.0195 26.8418C37.5996 26.9473 38.1973 27 38.8125 27Z" fill="#7467FF"/>
</svg>
