<svg width="62" height="62" viewBox="0 0 62 62" fill="none" xmlns="http://www.w3.org/2000/svg">
<path d="M23.2507 38.7498C22.7397 38.7498 22.2403 38.9013 21.8154 39.1852C21.3906 39.4691 21.0595 39.8725 20.864 40.3446C20.6684 40.8166 20.6173 41.336 20.717 41.8372C20.8166 42.3383 21.0627 42.7986 21.424 43.1599C21.7852 43.5212 22.2456 43.7672 22.7467 43.8669C23.2478 43.9665 23.7672 43.9154 24.2393 43.7199C24.7113 43.5243 25.1148 43.1932 25.3986 42.7684C25.6825 42.3436 25.834 41.8441 25.834 41.3332C25.834 40.648 25.5618 39.991 25.0773 39.5065C24.5929 39.022 23.9358 38.7498 23.2507 38.7498ZM5.16732 36.1665C4.48217 36.1665 3.82509 36.4387 3.34063 36.9231C2.85616 37.4076 2.58398 38.0647 2.58398 38.7498V43.9165C2.58398 44.6017 2.85616 45.2587 3.34063 45.7432C3.82509 46.2277 4.48217 46.4998 5.16732 46.4998C5.85246 46.4998 6.50954 46.2277 6.99401 45.7432C7.47848 45.2587 7.75065 44.6017 7.75065 43.9165V38.7498C7.75065 38.0647 7.47848 37.4076 6.99401 36.9231C6.50954 36.4387 5.85246 36.1665 5.16732 36.1665ZM56.834 36.1665C56.1488 36.1665 55.4918 36.4387 55.0073 36.9231C54.5228 37.4076 54.2506 38.0647 54.2506 38.7498V43.9165C54.2506 44.6017 54.5228 45.2587 55.0073 45.7432C55.4918 46.2277 56.1488 46.4998 56.834 46.4998C57.5191 46.4998 58.1762 46.2277 58.6607 45.7432C59.1451 45.2587 59.4173 44.6017 59.4173 43.9165V38.7498C59.4173 38.0647 59.1451 37.4076 58.6607 36.9231C58.1762 36.4387 57.5191 36.1665 56.834 36.1665ZM43.9173 18.0832H33.584V14.7765C34.3649 14.3257 35.0142 13.6784 35.4674 12.8989C35.9206 12.1194 36.1619 11.2348 36.1673 10.3332C36.1673 8.96289 35.623 7.64872 34.654 6.67979C33.6851 5.71085 32.3709 5.1665 31.0007 5.1665C29.6304 5.1665 28.3162 5.71085 27.3473 6.67979C26.3783 7.64872 25.834 8.96289 25.834 10.3332C25.8394 11.2348 26.0807 12.1194 26.5339 12.8989C26.9871 13.6784 27.6364 14.3257 28.4173 14.7765V18.0832H18.084C16.0286 18.0832 14.0573 18.8997 12.6039 20.3531C11.1505 21.8065 10.334 23.7777 10.334 25.8332V49.0832C10.334 51.1386 11.1505 53.1098 12.6039 54.5633C14.0573 56.0167 16.0286 56.8332 18.084 56.8332H43.9173C45.9727 56.8332 47.944 56.0167 49.3974 54.5633C50.8508 53.1098 51.6673 51.1386 51.6673 49.0832V25.8332C51.6673 23.7777 50.8508 21.8065 49.3974 20.3531C47.944 18.8997 45.9727 18.0832 43.9173 18.0832ZM35.444 23.2498L34.1523 28.4165H27.849L26.5573 23.2498H35.444ZM46.5006 49.0832C46.5006 49.7683 46.2285 50.4254 45.744 50.9099C45.2595 51.3943 44.6025 51.6665 43.9173 51.6665H18.084C17.3988 51.6665 16.7418 51.3943 16.2573 50.9099C15.7728 50.4254 15.5007 49.7683 15.5007 49.0832V25.8332C15.5007 25.148 15.7728 24.4909 16.2573 24.0065C16.7418 23.522 17.3988 23.2498 18.084 23.2498H21.2357L23.2507 31.6198C23.3921 32.193 23.7256 32.7005 24.1956 33.0577C24.6657 33.4149 25.2439 33.6004 25.834 33.5832H36.1673C36.7574 33.6004 37.3356 33.4149 37.8057 33.0577C38.2757 32.7005 38.6092 32.193 38.7506 31.6198L40.7656 23.2498H43.9173C44.6025 23.2498 45.2595 23.522 45.744 24.0065C46.2285 24.4909 46.5006 25.148 46.5006 25.8332V49.0832ZM38.7506 38.7498C38.2397 38.7498 37.7403 38.9013 37.3154 39.1852C36.8906 39.4691 36.5595 39.8725 36.364 40.3446C36.1684 40.8166 36.1173 41.336 36.217 41.8372C36.3166 42.3383 36.5627 42.7986 36.924 43.1599C37.2852 43.5212 37.7455 43.7672 38.2467 43.8669C38.7478 43.9665 39.2672 43.9154 39.7393 43.7199C40.2113 43.5243 40.6148 43.1932 40.8986 42.7684C41.1825 42.3436 41.334 41.8441 41.334 41.3332C41.334 40.648 41.0618 39.991 40.5773 39.5065C40.0929 39.022 39.4358 38.7498 38.7506 38.7498Z" fill="#7467FF"/>
</svg>
