<svg width="150" height="100" viewBox="0 0 150 100" fill="none" xmlns="http://www.w3.org/2000/svg">
<path d="M62.4746 89.6678C62.4449 89.657 65.0585 89.6359 68.2819 89.6208C71.5054 89.6057 74.678 89.5954 75.3317 89.5981C75.9854 89.6008 79.1397 89.6073 82.341 89.6116C86.2008 89.6175 88.1526 89.6386 88.1348 89.6743C88.1196 89.704 88.0834 89.7165 88.0537 89.7013C88.024 89.6862 87.9997 89.6986 87.9997 89.7284C87.9997 89.7581 87.9452 89.7981 87.8782 89.8175C87.8112 89.837 87.5319 89.9586 86.7572 90.3229H63.8522L63.3525 90.0878C63.0775 89.9586 62.7982 89.837 62.7312 89.8175C62.6642 89.7981 62.6097 89.7581 62.6097 89.7284C62.6097 89.6986 62.5913 89.677 62.5692 89.6808C62.547 89.684 62.5043 89.6781 62.4746 89.6678Z" fill="#DE8444"/>
<path d="M64.8516 90.7702C64.4654 90.6059 64.1008 90.4372 64.0413 90.3961C63.9495 90.3329 65.6193 90.3215 75.3048 90.3215C84.9903 90.3215 86.6601 90.3329 86.5682 90.3961C86.5088 90.4372 86.1442 90.6059 85.7579 90.7702C85.3717 90.935 85.013 91.0842 84.9611 91.1015C84.9092 91.1194 80.5638 91.1334 75.3048 91.1334C70.0458 91.1334 65.7003 91.1194 65.6485 91.1015C65.5966 91.0842 65.2379 90.935 64.8516 90.7702Z" fill="#DE8444"/>
<path d="M66.9385 91.5794C66.3847 91.3934 65.9077 91.2167 65.878 91.1864C65.8413 91.1491 68.8762 91.1318 75.302 91.1323C81.6231 91.1329 84.7628 91.1513 84.7288 91.1875C84.7007 91.2172 84.2248 91.3934 83.671 91.5794C83.1173 91.7653 82.6452 91.9356 82.6219 91.9577C82.5987 91.9799 79.3077 91.9988 75.3091 91.9999C71.3104 92.0004 68.0178 91.9826 67.9919 91.9593C67.9659 91.9361 67.4922 91.7653 66.9385 91.5794Z" fill="#DE8444"/>
<mask id="path-4-outside-1_3858_82" maskUnits="userSpaceOnUse" x="42" y="7" width="67" height="84" fill="black">
<rect fill="white" x="42" y="7" width="67" height="84"/>
<path d="M49.1045 59.9316C49.1046 60.073 49.188 60.6023 49.29 61.1074C49.3921 61.6128 49.5631 62.3671 49.6689 62.7832C49.7745 63.1958 49.8605 63.5398 49.8613 63.5527C49.8608 63.5603 50.5896 63.5664 53.1016 63.5664L53.126 63.6885C53.1399 63.7579 53.2629 64.5052 53.4004 65.3506C53.5376 66.1977 53.8317 67.9494 54.0537 69.2422C54.2757 70.5351 54.6035 72.4087 54.7812 73.4043C54.959 74.3999 55.2355 75.8962 55.3965 76.7285C55.558 77.5608 55.8131 78.8133 55.9639 79.5117C56.1151 80.21 56.3144 81.0984 56.5742 82.1875L56.9336 82.5391C57.1318 82.7325 57.5596 83.0766 57.8848 83.3047C58.2105 83.5322 58.7322 83.8756 59.0439 84.0664C59.3563 84.2567 60.0371 84.645 60.5566 84.9287C61.0769 85.213 62.0006 85.6952 62.6094 86C63.2188 86.3049 64.2155 86.7834 64.8242 87.0645C65.4335 87.3455 66.2475 87.704 66.6338 87.8613C67.0198 88.0185 67.5425 88.2225 67.7949 88.3145C68.0477 88.4063 68.4978 88.5535 68.7949 88.6416C69.0921 88.7292 69.5907 88.8664 69.9023 88.9453C70.2147 89.0237 70.7858 89.1451 71.1719 89.2148C71.5582 89.2851 72.2997 89.393 72.8193 89.4541C73.3395 89.5152 73.8504 89.5737 73.9541 89.584C74.0511 89.5943 71.4808 89.6129 62.3662 89.6475L60.9619 88.9404C60.1897 88.5519 59.193 88.0318 58.7471 87.7842C58.3015 87.5362 57.5845 87.1157 57.1533 86.8486C56.7228 86.5822 56.09 86.155 55.748 85.9004C55.4066 85.6452 54.86 85.1675 54.5332 84.8389C54.201 84.5049 53.8559 84.0991 53.75 83.918C53.6463 83.7401 53.4846 83.3628 53.3906 83.0801C53.2972 82.7974 53.1188 82.1279 52.9951 81.5928C52.8713 81.0572 52.5537 79.5371 52.2891 78.2148C52.0244 76.8921 51.5897 74.5929 51.3223 73.1064C51.0554 71.62 50.7146 69.6862 50.5645 68.8096C50.4143 67.933 50.2794 67.1484 50.2383 66.918L47.3486 66.9199L47.1484 66.2842C47.0388 65.9345 46.7896 65.0278 46.5957 64.2695C46.4018 63.5112 46.1711 62.55 46.083 62.1338C45.995 61.7176 45.8871 61.1342 45.8428 60.8369C45.7985 60.5396 45.7499 60.1562 45.7354 59.9854L45.709 59.6748H49.1035L49.1045 59.9316ZM104.878 59.9854C104.861 60.1562 104.811 60.5396 104.767 60.8369C104.722 61.1341 104.614 61.7176 104.526 62.1338C104.438 62.55 104.22 63.4628 104.043 64.1611C103.865 64.8595 103.617 65.7661 103.261 66.918H100.37L100.344 67.0664C100.329 67.148 100.157 68.1398 99.9629 69.2695C99.7684 70.3993 99.4266 72.3325 99.2041 73.5664C98.981 74.8004 98.6407 76.6127 98.4473 77.5938C98.2539 78.5748 97.9637 79.9854 97.8027 80.7285C97.6418 81.4714 97.4347 82.3465 97.3428 82.6738C97.2509 83.0008 97.0993 83.4266 97.0059 83.6201C96.913 83.8135 96.6997 84.1415 96.5312 84.3496C96.3627 84.5577 96.0567 84.8866 95.8525 85.0801C95.6483 85.2731 95.2135 85.6313 94.8867 85.875C94.5598 86.1188 93.9647 86.5232 93.5635 86.7734C93.1626 87.0237 92.4328 87.4552 91.9424 87.7324C91.4522 88.0093 90.4185 88.5538 88.2422 89.6475L82.3545 89.625C79.1212 89.6126 76.5595 89.5943 76.6543 89.584C76.7585 89.5737 77.2694 89.5152 77.7891 89.4541C78.3092 89.393 79.0502 89.2851 79.4365 89.2148C79.8226 89.1451 80.3943 89.0237 80.7061 88.9453C81.0182 88.8664 81.5163 88.7292 81.8135 88.6416C82.1106 88.5535 82.5612 88.4063 82.8135 88.3145C83.0664 88.2225 83.5885 88.0186 83.9746 87.8613C84.3609 87.704 85.1754 87.3455 85.7842 87.0645C86.3934 86.7834 87.3902 86.3049 87.999 86C88.6083 85.6952 89.532 85.2131 90.0518 84.9287C90.5719 84.645 91.2889 84.2314 91.6455 84.0098C92.002 83.7881 92.5256 83.4409 92.8076 83.2393C93.0901 83.0371 93.4799 82.718 94.0273 82.1875L94.2256 81.4043C94.3342 80.9736 94.5317 80.1096 94.6641 79.4854C94.7964 78.861 95.0399 77.6444 95.2041 76.7822C95.3689 75.9201 95.6607 74.3275 95.8535 73.2422C96.0469 72.1569 96.3746 70.2844 96.582 69.0801C96.7889 67.876 97.0712 66.1977 97.209 65.3506C97.3467 64.5036 97.4706 63.7551 97.5068 63.5664H99.1279C100.019 63.5664 100.748 63.5542 100.748 63.5391C100.75 63.5179 100.857 63.0765 100.988 62.5527C101.121 62.0252 101.292 61.271 101.367 60.877C101.443 60.4831 101.505 60.052 101.505 59.918V59.6748H104.908L104.878 59.9854ZM83.5156 11.7842L83.9883 11.9229C84.2481 11.9991 84.7411 12.1597 85.083 12.2803C85.425 12.4008 86.0329 12.6283 86.4336 12.7861C86.8345 12.944 87.5393 13.2458 88 13.4561C88.4608 13.6669 89.1048 13.9888 89.4316 14.1709C89.7585 14.3531 90.3174 14.6737 90.6738 14.8828C91.0304 15.092 91.5774 15.4335 91.8896 15.6416C92.2019 15.8497 92.6878 16.1894 92.9697 16.3975C93.2517 16.605 93.7263 16.9706 94.0234 17.209C94.3206 17.4474 94.8187 17.8663 95.1309 18.1387C95.4432 18.4113 96.1096 19.0567 96.6123 19.5732C97.1152 20.0905 97.7943 20.8293 98.1211 21.2158C98.4478 21.6022 98.921 22.1984 99.1738 22.54C99.4266 22.8816 99.8453 23.4778 100.104 23.8643C100.362 24.2507 100.725 24.8228 100.911 25.1348C101.097 25.4466 101.425 26.03 101.64 26.4316C101.854 26.8331 102.176 27.4777 102.354 27.8643C102.533 28.2507 102.815 28.908 102.979 29.3242C103.145 29.7405 103.427 30.5186 103.606 31.0537C103.786 31.5888 104.054 32.5129 104.201 33.1074C104.349 33.702 104.53 34.5291 104.605 34.9453C104.681 35.3615 104.778 35.9699 104.822 36.2969C104.867 36.6239 104.93 37.1593 104.961 37.4863C104.993 37.8135 105.042 38.5669 105.07 39.1611C105.099 39.7557 105.124 41.0274 105.125 43.7295H107.609V56.3232H43V43.7295H43.6348C43.9837 43.729 44.5428 43.7111 45.4854 43.6484L45.4863 41.9453C45.4863 41.0086 45.5099 39.7557 45.5391 39.1611C45.5677 38.5669 45.6166 37.8135 45.6484 37.4863C45.6798 37.1593 45.7423 36.6239 45.7871 36.2969C45.8314 35.9699 45.9288 35.3615 46.0039 34.9453C46.079 34.5291 46.2617 33.702 46.4092 33.1074C46.5561 32.5129 46.8236 31.5888 47.0029 31.0537C47.1823 30.5187 47.4646 29.7405 47.6299 29.3242C47.7946 28.908 48.0761 28.2507 48.2549 27.8643C48.4337 27.4777 48.7553 26.8332 48.9697 26.4316C49.1842 26.03 49.5125 25.4466 49.6982 25.1348C49.8846 24.8229 50.2471 24.2507 50.5059 23.8643C50.7641 23.4778 51.1827 22.8816 51.4355 22.54C51.6884 22.1984 52.1625 21.6022 52.4893 21.2158C52.8162 20.8293 53.4943 20.0904 53.9971 19.5732C54.4998 19.0568 55.1661 18.4113 55.4785 18.1387C55.7907 17.8663 56.2888 17.4474 56.5859 17.209C56.8831 16.9706 57.3577 16.605 57.6396 16.3975C57.9216 16.1894 58.4085 15.8497 58.7207 15.6416C59.0329 15.4335 59.5791 15.0919 59.9355 14.8828C60.2919 14.6737 60.8508 14.3531 61.1777 14.1709C61.5045 13.9888 62.1486 13.6669 62.6094 13.4561C63.0702 13.2458 63.7759 12.944 64.1768 12.7861C64.5776 12.6283 65.1855 12.4012 65.5273 12.2812C65.8692 12.1613 66.3671 11.9945 67.1201 11.7568L67.1348 9.87793L67.1494 8H83.5156V11.7842ZM70.4971 11.3516V24.5938H67.1475C67.1475 17.3889 67.1414 15.2974 67.1338 15.2969C67.1208 15.2988 66.8737 15.3801 66.5801 15.4795C66.2829 15.5801 65.748 15.7792 65.3916 15.9219C65.0369 16.0639 64.7344 16.1937 64.7168 16.2119C64.7017 16.2287 64.6532 16.2496 64.6084 16.2588C64.563 16.2678 64.1437 16.4625 63.6758 16.6914C63.2069 16.9201 62.8241 17.1263 62.8252 17.1484C62.8257 17.1706 62.8073 17.1837 62.7852 17.1777C62.7619 17.1725 62.611 17.2365 62.4482 17.3203C62.2846 17.4041 61.8713 17.6435 61.5293 17.8516C61.1874 18.0602 60.6592 18.3972 60.3545 18.6016C60.0512 18.8044 59.803 18.9953 59.8008 19.0264C59.8008 19.0561 59.7579 19.0893 59.7061 19.0996C59.6539 19.1107 59.3328 19.3354 58.9932 19.5996C58.6534 19.8644 58.0465 20.3768 57.6436 20.7383C57.2406 21.0999 56.6454 21.672 56.3213 22.0088C55.9966 22.3455 55.6423 22.719 55.5332 22.8379C55.4235 22.9569 55.1517 23.2726 54.9287 23.54C54.7061 23.8076 54.344 24.2701 54.123 24.5674C53.9026 24.8647 53.4893 25.4603 53.2041 25.8916C52.9194 26.3229 52.5392 26.9313 52.3604 27.2432C52.1815 27.5551 51.8621 28.1574 51.6504 28.5811C51.4392 29.0048 51.1279 29.6734 50.96 30.0674C50.7925 30.4614 50.5272 31.1479 50.3711 31.5938C50.215 32.0397 49.9905 32.7459 49.8711 33.1621C49.7523 33.578 49.6365 34.003 49.6143 34.1074C49.5921 34.2117 49.5664 34.3458 49.5566 34.4053C49.5468 34.4652 49.5032 34.659 49.459 34.8369C49.4153 35.0152 49.3667 35.2462 49.3516 35.3506C49.3364 35.4548 49.2997 35.6369 49.2705 35.7559C49.2413 35.8748 49.1685 36.3613 49.1074 36.8369C49.0469 37.3126 48.9736 37.9699 48.9434 38.2969C48.9131 38.6242 48.8698 39.9678 48.8477 41.2832L48.8076 43.6748H51.6973V47.0801H46.3496V53.0264H104.261V47.0801H98.9121V43.7285L101.748 43.7021C101.773 41.9006 101.755 40.6477 101.725 39.7559C101.694 38.864 101.633 37.8181 101.589 37.4316C101.545 37.0451 101.447 36.3638 101.372 35.918C101.296 35.4722 101.173 34.8647 101.099 34.5674C101.024 34.2705 100.954 33.9662 100.94 33.8916C100.927 33.817 100.82 33.428 100.702 33.0264C100.584 32.6248 100.367 31.9562 100.221 31.54C100.074 31.1238 99.7984 30.4186 99.6094 29.9727C99.4198 29.5267 99.0982 28.8333 98.8945 28.4316C98.6908 28.03 98.3015 27.3295 98.0293 26.874C97.7571 26.4184 97.4862 25.9931 97.4268 25.9287C97.3673 25.8649 97.3245 25.806 97.332 25.7979C97.3388 25.7887 97.2194 25.5939 97.0664 25.3643C96.9125 25.1341 96.628 24.7393 96.4336 24.4863C96.2391 24.2334 95.8366 23.7347 95.54 23.3779C95.2434 23.0211 94.647 22.3679 94.2148 21.9258C93.7827 21.4836 93.1867 20.912 92.8906 20.6553C92.5951 20.3985 92.0724 19.9635 91.7295 19.6885C91.3865 19.414 91.0754 19.1885 91.0381 19.1885C91.001 19.1883 90.9707 19.1644 90.9707 19.1348C90.9695 19.1043 90.5388 18.794 90.0117 18.4453C89.4836 18.0963 88.7487 17.6408 88.3779 17.4326C88.0068 17.2245 87.6843 17.0598 87.6621 17.0674C87.64 17.0748 87.6221 17.056 87.6221 17.0264C87.6218 16.997 87.5969 16.9849 87.5674 17C87.5378 17.0144 87.5075 17.0045 87.5 16.9775C87.4914 16.9506 87.1458 16.7712 86.7305 16.5791C86.3148 16.3874 85.7927 16.1528 85.5693 16.0586C85.3473 15.9642 85.1286 15.8804 85.083 15.873C85.0382 15.8655 84.953 15.8322 84.8936 15.7998C84.8339 15.7668 84.4992 15.6407 84.1504 15.5186L83.5156 15.2969V24.5938H80.167V11.3516H70.4971Z"/>
</mask>
<path d="M49.1045 59.9316C49.1046 60.073 49.188 60.6023 49.29 61.1074C49.3921 61.6128 49.5631 62.3671 49.6689 62.7832C49.7745 63.1958 49.8605 63.5398 49.8613 63.5527C49.8608 63.5603 50.5896 63.5664 53.1016 63.5664L53.126 63.6885C53.1399 63.7579 53.2629 64.5052 53.4004 65.3506C53.5376 66.1977 53.8317 67.9494 54.0537 69.2422C54.2757 70.5351 54.6035 72.4087 54.7812 73.4043C54.959 74.3999 55.2355 75.8962 55.3965 76.7285C55.558 77.5608 55.8131 78.8133 55.9639 79.5117C56.1151 80.21 56.3144 81.0984 56.5742 82.1875L56.9336 82.5391C57.1318 82.7325 57.5596 83.0766 57.8848 83.3047C58.2105 83.5322 58.7322 83.8756 59.0439 84.0664C59.3563 84.2567 60.0371 84.645 60.5566 84.9287C61.0769 85.213 62.0006 85.6952 62.6094 86C63.2188 86.3049 64.2155 86.7834 64.8242 87.0645C65.4335 87.3455 66.2475 87.704 66.6338 87.8613C67.0198 88.0185 67.5425 88.2225 67.7949 88.3145C68.0477 88.4063 68.4978 88.5535 68.7949 88.6416C69.0921 88.7292 69.5907 88.8664 69.9023 88.9453C70.2147 89.0237 70.7858 89.1451 71.1719 89.2148C71.5582 89.2851 72.2997 89.393 72.8193 89.4541C73.3395 89.5152 73.8504 89.5737 73.9541 89.584C74.0511 89.5943 71.4808 89.6129 62.3662 89.6475L60.9619 88.9404C60.1897 88.5519 59.193 88.0318 58.7471 87.7842C58.3015 87.5362 57.5845 87.1157 57.1533 86.8486C56.7228 86.5822 56.09 86.155 55.748 85.9004C55.4066 85.6452 54.86 85.1675 54.5332 84.8389C54.201 84.5049 53.8559 84.0991 53.75 83.918C53.6463 83.7401 53.4846 83.3628 53.3906 83.0801C53.2972 82.7974 53.1188 82.1279 52.9951 81.5928C52.8713 81.0572 52.5537 79.5371 52.2891 78.2148C52.0244 76.8921 51.5897 74.5929 51.3223 73.1064C51.0554 71.62 50.7146 69.6862 50.5645 68.8096C50.4143 67.933 50.2794 67.1484 50.2383 66.918L47.3486 66.9199L47.1484 66.2842C47.0388 65.9345 46.7896 65.0278 46.5957 64.2695C46.4018 63.5112 46.1711 62.55 46.083 62.1338C45.995 61.7176 45.8871 61.1342 45.8428 60.8369C45.7985 60.5396 45.7499 60.1562 45.7354 59.9854L45.709 59.6748H49.1035L49.1045 59.9316ZM104.878 59.9854C104.861 60.1562 104.811 60.5396 104.767 60.8369C104.722 61.1341 104.614 61.7176 104.526 62.1338C104.438 62.55 104.22 63.4628 104.043 64.1611C103.865 64.8595 103.617 65.7661 103.261 66.918H100.37L100.344 67.0664C100.329 67.148 100.157 68.1398 99.9629 69.2695C99.7684 70.3993 99.4266 72.3325 99.2041 73.5664C98.981 74.8004 98.6407 76.6127 98.4473 77.5938C98.2539 78.5748 97.9637 79.9854 97.8027 80.7285C97.6418 81.4714 97.4347 82.3465 97.3428 82.6738C97.2509 83.0008 97.0993 83.4266 97.0059 83.6201C96.913 83.8135 96.6997 84.1415 96.5312 84.3496C96.3627 84.5577 96.0567 84.8866 95.8525 85.0801C95.6483 85.2731 95.2135 85.6313 94.8867 85.875C94.5598 86.1188 93.9647 86.5232 93.5635 86.7734C93.1626 87.0237 92.4328 87.4552 91.9424 87.7324C91.4522 88.0093 90.4185 88.5538 88.2422 89.6475L82.3545 89.625C79.1212 89.6126 76.5595 89.5943 76.6543 89.584C76.7585 89.5737 77.2694 89.5152 77.7891 89.4541C78.3092 89.393 79.0502 89.2851 79.4365 89.2148C79.8226 89.1451 80.3943 89.0237 80.7061 88.9453C81.0182 88.8664 81.5163 88.7292 81.8135 88.6416C82.1106 88.5535 82.5612 88.4063 82.8135 88.3145C83.0664 88.2225 83.5885 88.0186 83.9746 87.8613C84.3609 87.704 85.1754 87.3455 85.7842 87.0645C86.3934 86.7834 87.3902 86.3049 87.999 86C88.6083 85.6952 89.532 85.2131 90.0518 84.9287C90.5719 84.645 91.2889 84.2314 91.6455 84.0098C92.002 83.7881 92.5256 83.4409 92.8076 83.2393C93.0901 83.0371 93.4799 82.718 94.0273 82.1875L94.2256 81.4043C94.3342 80.9736 94.5317 80.1096 94.6641 79.4854C94.7964 78.861 95.0399 77.6444 95.2041 76.7822C95.3689 75.9201 95.6607 74.3275 95.8535 73.2422C96.0469 72.1569 96.3746 70.2844 96.582 69.0801C96.7889 67.876 97.0712 66.1977 97.209 65.3506C97.3467 64.5036 97.4706 63.7551 97.5068 63.5664H99.1279C100.019 63.5664 100.748 63.5542 100.748 63.5391C100.75 63.5179 100.857 63.0765 100.988 62.5527C101.121 62.0252 101.292 61.271 101.367 60.877C101.443 60.4831 101.505 60.052 101.505 59.918V59.6748H104.908L104.878 59.9854ZM83.5156 11.7842L83.9883 11.9229C84.2481 11.9991 84.7411 12.1597 85.083 12.2803C85.425 12.4008 86.0329 12.6283 86.4336 12.7861C86.8345 12.944 87.5393 13.2458 88 13.4561C88.4608 13.6669 89.1048 13.9888 89.4316 14.1709C89.7585 14.3531 90.3174 14.6737 90.6738 14.8828C91.0304 15.092 91.5774 15.4335 91.8896 15.6416C92.2019 15.8497 92.6878 16.1894 92.9697 16.3975C93.2517 16.605 93.7263 16.9706 94.0234 17.209C94.3206 17.4474 94.8187 17.8663 95.1309 18.1387C95.4432 18.4113 96.1096 19.0567 96.6123 19.5732C97.1152 20.0905 97.7943 20.8293 98.1211 21.2158C98.4478 21.6022 98.921 22.1984 99.1738 22.54C99.4266 22.8816 99.8453 23.4778 100.104 23.8643C100.362 24.2507 100.725 24.8228 100.911 25.1348C101.097 25.4466 101.425 26.03 101.64 26.4316C101.854 26.8331 102.176 27.4777 102.354 27.8643C102.533 28.2507 102.815 28.908 102.979 29.3242C103.145 29.7405 103.427 30.5186 103.606 31.0537C103.786 31.5888 104.054 32.5129 104.201 33.1074C104.349 33.702 104.53 34.5291 104.605 34.9453C104.681 35.3615 104.778 35.9699 104.822 36.2969C104.867 36.6239 104.93 37.1593 104.961 37.4863C104.993 37.8135 105.042 38.5669 105.07 39.1611C105.099 39.7557 105.124 41.0274 105.125 43.7295H107.609V56.3232H43V43.7295H43.6348C43.9837 43.729 44.5428 43.7111 45.4854 43.6484L45.4863 41.9453C45.4863 41.0086 45.5099 39.7557 45.5391 39.1611C45.5677 38.5669 45.6166 37.8135 45.6484 37.4863C45.6798 37.1593 45.7423 36.6239 45.7871 36.2969C45.8314 35.9699 45.9288 35.3615 46.0039 34.9453C46.079 34.5291 46.2617 33.702 46.4092 33.1074C46.5561 32.5129 46.8236 31.5888 47.0029 31.0537C47.1823 30.5187 47.4646 29.7405 47.6299 29.3242C47.7946 28.908 48.0761 28.2507 48.2549 27.8643C48.4337 27.4777 48.7553 26.8332 48.9697 26.4316C49.1842 26.03 49.5125 25.4466 49.6982 25.1348C49.8846 24.8229 50.2471 24.2507 50.5059 23.8643C50.7641 23.4778 51.1827 22.8816 51.4355 22.54C51.6884 22.1984 52.1625 21.6022 52.4893 21.2158C52.8162 20.8293 53.4943 20.0904 53.9971 19.5732C54.4998 19.0568 55.1661 18.4113 55.4785 18.1387C55.7907 17.8663 56.2888 17.4474 56.5859 17.209C56.8831 16.9706 57.3577 16.605 57.6396 16.3975C57.9216 16.1894 58.4085 15.8497 58.7207 15.6416C59.0329 15.4335 59.5791 15.0919 59.9355 14.8828C60.2919 14.6737 60.8508 14.3531 61.1777 14.1709C61.5045 13.9888 62.1486 13.6669 62.6094 13.4561C63.0702 13.2458 63.7759 12.944 64.1768 12.7861C64.5776 12.6283 65.1855 12.4012 65.5273 12.2812C65.8692 12.1613 66.3671 11.9945 67.1201 11.7568L67.1348 9.87793L67.1494 8H83.5156V11.7842ZM70.4971 11.3516V24.5938H67.1475C67.1475 17.3889 67.1414 15.2974 67.1338 15.2969C67.1208 15.2988 66.8737 15.3801 66.5801 15.4795C66.2829 15.5801 65.748 15.7792 65.3916 15.9219C65.0369 16.0639 64.7344 16.1937 64.7168 16.2119C64.7017 16.2287 64.6532 16.2496 64.6084 16.2588C64.563 16.2678 64.1437 16.4625 63.6758 16.6914C63.2069 16.9201 62.8241 17.1263 62.8252 17.1484C62.8257 17.1706 62.8073 17.1837 62.7852 17.1777C62.7619 17.1725 62.611 17.2365 62.4482 17.3203C62.2846 17.4041 61.8713 17.6435 61.5293 17.8516C61.1874 18.0602 60.6592 18.3972 60.3545 18.6016C60.0512 18.8044 59.803 18.9953 59.8008 19.0264C59.8008 19.0561 59.7579 19.0893 59.7061 19.0996C59.6539 19.1107 59.3328 19.3354 58.9932 19.5996C58.6534 19.8644 58.0465 20.3768 57.6436 20.7383C57.2406 21.0999 56.6454 21.672 56.3213 22.0088C55.9966 22.3455 55.6423 22.719 55.5332 22.8379C55.4235 22.9569 55.1517 23.2726 54.9287 23.54C54.7061 23.8076 54.344 24.2701 54.123 24.5674C53.9026 24.8647 53.4893 25.4603 53.2041 25.8916C52.9194 26.3229 52.5392 26.9313 52.3604 27.2432C52.1815 27.5551 51.8621 28.1574 51.6504 28.5811C51.4392 29.0048 51.1279 29.6734 50.96 30.0674C50.7925 30.4614 50.5272 31.1479 50.3711 31.5938C50.215 32.0397 49.9905 32.7459 49.8711 33.1621C49.7523 33.578 49.6365 34.003 49.6143 34.1074C49.5921 34.2117 49.5664 34.3458 49.5566 34.4053C49.5468 34.4652 49.5032 34.659 49.459 34.8369C49.4153 35.0152 49.3667 35.2462 49.3516 35.3506C49.3364 35.4548 49.2997 35.6369 49.2705 35.7559C49.2413 35.8748 49.1685 36.3613 49.1074 36.8369C49.0469 37.3126 48.9736 37.9699 48.9434 38.2969C48.9131 38.6242 48.8698 39.9678 48.8477 41.2832L48.8076 43.6748H51.6973V47.0801H46.3496V53.0264H104.261V47.0801H98.9121V43.7285L101.748 43.7021C101.773 41.9006 101.755 40.6477 101.725 39.7559C101.694 38.864 101.633 37.8181 101.589 37.4316C101.545 37.0451 101.447 36.3638 101.372 35.918C101.296 35.4722 101.173 34.8647 101.099 34.5674C101.024 34.2705 100.954 33.9662 100.94 33.8916C100.927 33.817 100.82 33.428 100.702 33.0264C100.584 32.6248 100.367 31.9562 100.221 31.54C100.074 31.1238 99.7984 30.4186 99.6094 29.9727C99.4198 29.5267 99.0982 28.8333 98.8945 28.4316C98.6908 28.03 98.3015 27.3295 98.0293 26.874C97.7571 26.4184 97.4862 25.9931 97.4268 25.9287C97.3673 25.8649 97.3245 25.806 97.332 25.7979C97.3388 25.7887 97.2194 25.5939 97.0664 25.3643C96.9125 25.1341 96.628 24.7393 96.4336 24.4863C96.2391 24.2334 95.8366 23.7347 95.54 23.3779C95.2434 23.0211 94.647 22.3679 94.2148 21.9258C93.7827 21.4836 93.1867 20.912 92.8906 20.6553C92.5951 20.3985 92.0724 19.9635 91.7295 19.6885C91.3865 19.414 91.0754 19.1885 91.0381 19.1885C91.001 19.1883 90.9707 19.1644 90.9707 19.1348C90.9695 19.1043 90.5388 18.794 90.0117 18.4453C89.4836 18.0963 88.7487 17.6408 88.3779 17.4326C88.0068 17.2245 87.6843 17.0598 87.6621 17.0674C87.64 17.0748 87.6221 17.056 87.6221 17.0264C87.6218 16.997 87.5969 16.9849 87.5674 17C87.5378 17.0144 87.5075 17.0045 87.5 16.9775C87.4914 16.9506 87.1458 16.7712 86.7305 16.5791C86.3148 16.3874 85.7927 16.1528 85.5693 16.0586C85.3473 15.9642 85.1286 15.8804 85.083 15.873C85.0382 15.8655 84.953 15.8322 84.8936 15.7998C84.8339 15.7668 84.4992 15.6407 84.1504 15.5186L83.5156 15.2969V24.5938H80.167V11.3516H70.4971Z" fill="#DE8444"/>
<path d="M49.1045 59.9316L50.1045 59.9311L50.1045 59.9278L49.1045 59.9316ZM49.29 61.1074L48.3098 61.3054L48.3098 61.3055L49.29 61.1074ZM49.6689 62.7832L48.6998 63.0297L48.7001 63.0309L49.6689 62.7832ZM49.8613 63.5527L50.8588 63.6239L50.8637 63.5553L50.8591 63.4866L49.8613 63.5527ZM53.1016 63.5664L54.0821 63.3703L53.9214 62.5664H53.1016V63.5664ZM53.126 63.6885L52.1454 63.8846L52.1454 63.8846L53.126 63.6885ZM53.4004 65.3506L54.3875 65.1907L54.3874 65.1901L53.4004 65.3506ZM54.0537 69.2422L53.0681 69.4114L53.0681 69.4114L54.0537 69.2422ZM54.7812 73.4043L53.7968 73.58L53.7968 73.58L54.7812 73.4043ZM55.3965 76.7285L54.4147 76.9184L54.4148 76.919L55.3965 76.7285ZM55.9639 79.5117L54.9864 79.7227L54.9865 79.7234L55.9639 79.5117ZM56.5742 82.1875L55.6015 82.4196L55.6685 82.7004L55.8749 82.9023L56.5742 82.1875ZM56.9336 82.5391L56.2343 83.2539L56.2351 83.2547L56.9336 82.5391ZM57.8848 83.3047L57.3105 84.1233L57.3121 84.1245L57.8848 83.3047ZM59.0439 84.0664L58.5219 84.9193L58.5236 84.9204L59.0439 84.0664ZM60.5566 84.9287L61.0362 84.0512L61.0359 84.051L60.5566 84.9287ZM62.6094 86L62.1616 86.8942L62.162 86.8943L62.6094 86ZM64.8242 87.0645L64.4051 87.9724L64.4054 87.9725L64.8242 87.0645ZM66.6338 87.8613L66.2566 88.7875L66.2566 88.7875L66.6338 87.8613ZM67.7949 88.3145L67.4526 89.254L67.4533 89.2543L67.7949 88.3145ZM68.7949 88.6416L68.5106 89.6003L68.5122 89.6008L68.7949 88.6416ZM69.9023 88.9453L69.6569 89.9147L69.6589 89.9152L69.9023 88.9453ZM71.1719 89.2148L71.3508 88.231L71.3495 88.2307L71.1719 89.2148ZM72.8193 89.4541L72.7026 90.4473L72.7027 90.4473L72.8193 89.4541ZM73.9541 89.584L74.0595 88.5895L74.0526 88.5888L73.9541 89.584ZM62.3662 89.6475L61.9165 90.5406L62.1305 90.6484L62.37 90.6475L62.3662 89.6475ZM60.9619 88.9404L61.4116 88.0472L61.4113 88.0471L60.9619 88.9404ZM58.7471 87.7842L58.2607 88.6579L58.2615 88.6584L58.7471 87.7842ZM57.1533 86.8486L57.6799 85.9985L57.6796 85.9983L57.1533 86.8486ZM55.748 85.9004L55.1494 86.7014L55.1509 86.7025L55.748 85.9004ZM54.5332 84.8389L55.2423 84.1337L55.2422 84.1337L54.5332 84.8389ZM53.75 83.918L52.8862 84.4218L52.8868 84.4229L53.75 83.918ZM53.3906 83.0801L52.4412 83.394L52.4417 83.3956L53.3906 83.0801ZM52.9951 81.5928L52.0208 81.818L52.0208 81.818L52.9951 81.5928ZM52.2891 78.2148L51.3085 78.4111L51.3085 78.4111L52.2891 78.2148ZM51.3223 73.1064L50.338 73.2832L50.3381 73.2835L51.3223 73.1064ZM50.5645 68.8096L51.5501 68.6407L50.5645 68.8096ZM50.2383 66.918L51.2228 66.7424L51.0757 65.9174L50.2376 65.918L50.2383 66.918ZM47.3486 66.9199L46.3948 67.2203L46.6153 67.9204L47.3493 67.9199L47.3486 66.9199ZM47.1484 66.2842L46.1942 66.5834L46.1946 66.5845L47.1484 66.2842ZM46.5957 64.2695L45.6269 64.5173L45.6269 64.5173L46.5957 64.2695ZM46.083 62.1338L45.1047 62.3408L45.1047 62.3408L46.083 62.1338ZM45.8428 60.8369L44.8537 60.9843L44.8537 60.9843L45.8428 60.8369ZM45.7354 59.9854L44.7389 60.07L44.739 60.0704L45.7354 59.9854ZM45.709 59.6748V58.6748H44.6205L44.7126 59.7594L45.709 59.6748ZM49.1035 59.6748L50.1035 59.671L50.0997 58.6748H49.1035V59.6748ZM104.878 59.9854L105.873 60.0861L105.873 60.0824L104.878 59.9854ZM104.767 60.8369L105.756 60.9843L105.756 60.9843L104.767 60.8369ZM104.526 62.1338L105.504 62.342L105.505 62.3408L104.526 62.1338ZM104.043 64.1611L105.012 64.4078L105.012 64.4071L104.043 64.1611ZM103.261 66.918V67.918H103.998L104.216 67.2137L103.261 66.918ZM100.37 66.918V65.918H99.5321L99.3855 66.7431L100.37 66.918ZM100.344 67.0664L101.327 67.2486L101.328 67.2413L100.344 67.0664ZM99.9629 69.2695L100.948 69.4392L100.948 69.4392L99.9629 69.2695ZM99.2041 73.5664L100.188 73.7443L100.188 73.7439L99.2041 73.5664ZM98.4473 77.5938L99.4284 77.7872L99.4284 77.7872L98.4473 77.5938ZM97.8027 80.7285L98.7801 80.9402L98.7801 80.9402L97.8027 80.7285ZM97.3428 82.6738L98.3055 82.9442L98.3056 82.9441L97.3428 82.6738ZM97.0059 83.6201L96.1054 83.1852L96.1044 83.1872L97.0059 83.6201ZM96.5312 84.3496L97.3083 84.979L97.3085 84.9788L96.5312 84.3496ZM95.8525 85.0801L96.5393 85.8069L96.5404 85.8059L95.8525 85.0801ZM94.8867 85.875L95.4846 86.6766L95.4846 86.6766L94.8867 85.875ZM93.5635 86.7734L93.0344 85.9249L93.0339 85.9252L93.5635 86.7734ZM91.9424 87.7324L92.4341 88.6032L92.4345 88.603L91.9424 87.7324ZM88.2422 89.6475L88.2384 90.6475L88.4775 90.6484L88.6912 90.541L88.2422 89.6475ZM82.3545 89.625L82.3507 90.625L82.3507 90.625L82.3545 89.625ZM76.6543 89.584L76.5563 88.5888L76.5465 88.5898L76.6543 89.584ZM77.7891 89.4541L77.6725 88.4609L77.6723 88.4609L77.7891 89.4541ZM79.4365 89.2148L79.2589 88.2307L79.2576 88.231L79.4365 89.2148ZM80.7061 88.9453L80.9499 89.9151L80.9511 89.9148L80.7061 88.9453ZM81.8135 88.6416L82.0961 89.6008L82.0978 89.6003L81.8135 88.6416ZM82.8135 88.3145L82.4718 87.3746L82.4712 87.3748L82.8135 88.3145ZM83.9746 87.8613L84.3518 88.7875L84.3518 88.7875L83.9746 87.8613ZM85.7842 87.0645L85.3653 86.1564L85.365 86.1565L85.7842 87.0645ZM87.999 86L87.5516 85.1057L87.5513 85.1058L87.999 86ZM90.0518 84.9287L89.5729 84.0508L89.5718 84.0514L90.0518 84.9287ZM91.6455 84.0098L92.1734 84.8591L92.1734 84.8591L91.6455 84.0098ZM92.8076 83.2393L93.3892 84.0527L93.3896 84.0525L92.8076 83.2393ZM94.0273 82.1875L94.7232 82.9056L94.9271 82.7081L94.9968 82.4329L94.0273 82.1875ZM94.2256 81.4043L95.195 81.6497L95.1953 81.6487L94.2256 81.4043ZM94.6641 79.4854L95.6423 79.6927L95.6423 79.6927L94.6641 79.4854ZM95.2041 76.7822L94.2219 76.5945L94.2218 76.5951L95.2041 76.7822ZM95.8535 73.2422L94.869 73.0668L94.8689 73.0672L95.8535 73.2422ZM96.582 69.0801L97.5675 69.2498L97.5676 69.2494L96.582 69.0801ZM97.209 65.3506L98.196 65.5111L98.196 65.5111L97.209 65.3506ZM97.5068 63.5664V62.5664H96.6805L96.5247 63.378L97.5068 63.5664ZM99.1279 63.5664L99.1279 64.5664L99.1279 64.5664L99.1279 63.5664ZM100.748 63.5391L99.7507 63.4658L99.748 63.5024V63.5391H100.748ZM100.988 62.5527L100.018 62.3094L100.018 62.3103L100.988 62.5527ZM101.367 60.877L100.385 60.6872L100.385 60.6885L101.367 60.877ZM101.505 59.918L102.505 59.9181V59.918H101.505ZM101.505 59.6748V58.6748H100.505V59.6748H101.505ZM104.908 59.6748L105.903 59.7718L106.01 58.6748H104.908V59.6748ZM83.5156 11.7842H82.5156V12.5329L83.2341 12.7437L83.5156 11.7842ZM83.9883 11.9229L83.7068 12.8824L83.7068 12.8824L83.9883 11.9229ZM85.083 12.2803L85.4155 11.3372L85.4155 11.3372L85.083 12.2803ZM86.4336 12.7861L86.8 11.8557L86.8 11.8557L86.4336 12.7861ZM88 13.4561L88.416 12.5467L88.4151 12.5463L88 13.4561ZM89.4316 14.1709L89.9185 13.2974L89.9185 13.2974L89.4316 14.1709ZM90.6738 14.8828L91.1799 14.0203L91.1799 14.0203L90.6738 14.8828ZM91.8896 15.6416L92.4443 14.8095L92.4442 14.8095L91.8896 15.6416ZM92.9697 16.3975L92.3759 17.2021L92.3769 17.2028L92.9697 16.3975ZM94.0234 17.209L94.6492 16.429L94.6492 16.429L94.0234 17.209ZM95.1309 18.1387L95.7884 17.3852L95.7883 17.3852L95.1309 18.1387ZM96.6123 19.5732L97.3293 18.8761L97.3289 18.8758L96.6123 19.5732ZM98.1211 21.2158L98.8847 20.5701L98.8847 20.5701L98.1211 21.2158ZM99.1738 22.54L99.9776 21.9452L99.9776 21.9451L99.1738 22.54ZM100.104 23.8643L99.272 24.4198L99.2726 24.4206L100.104 23.8643ZM100.911 25.1348L101.77 24.6229L101.77 24.6218L100.911 25.1348ZM101.64 26.4316L102.522 25.9606L102.522 25.9606L101.64 26.4316ZM102.354 27.8643L103.262 27.4443L103.262 27.4443L102.354 27.8643ZM102.979 29.3242L102.05 29.6923L102.05 29.6933L102.979 29.3242ZM103.606 31.0537L104.555 30.7359L104.555 30.7359L103.606 31.0537ZM104.201 33.1074L103.23 33.3473L103.231 33.3482L104.201 33.1074ZM104.605 34.9453L105.59 34.7678L105.59 34.7677L104.605 34.9453ZM104.822 36.2969L103.831 36.4311L103.832 36.4327L104.822 36.2969ZM104.961 37.4863L103.965 37.5817L103.966 37.5833L104.961 37.4863ZM105.07 39.1611L104.071 39.2092L104.072 39.2101L105.07 39.1611ZM105.125 43.7295L104.125 43.7299L104.125 44.7295H105.125V43.7295ZM107.609 43.7295H108.609V42.7295H107.609V43.7295ZM107.609 56.3232V57.3232H108.609V56.3232H107.609ZM43 56.3232H42V57.3232H43V56.3232ZM43 43.7295V42.7295H42V43.7295H43ZM43.6348 43.7295L43.6348 44.7295L43.6363 44.7295L43.6348 43.7295ZM45.4854 43.6484L45.5517 44.6462L46.4848 44.5842L46.4854 43.649L45.4854 43.6484ZM45.4863 41.9453L46.4863 41.9459V41.9453H45.4863ZM45.5391 39.1611L46.5379 39.2101L46.5379 39.2092L45.5391 39.1611ZM45.6484 37.4863L46.6437 37.5833L46.6439 37.5817L45.6484 37.4863ZM45.7871 36.2969L46.7778 36.4327L46.7781 36.4311L45.7871 36.2969ZM46.0039 34.9453L45.0198 34.7678L45.0198 34.7678L46.0039 34.9453ZM46.4092 33.1074L47.3798 33.3482L47.38 33.3474L46.4092 33.1074ZM47.0029 31.0537L46.0548 30.7359L46.0548 30.7359L47.0029 31.0537ZM47.6299 29.3242L48.5593 29.6933L48.5597 29.6923L47.6299 29.3242ZM48.2549 27.8643L47.3473 27.4443L47.3473 27.4444L48.2549 27.8643ZM48.9697 26.4316L48.0876 25.9606L48.0876 25.9606L48.9697 26.4316ZM49.6982 25.1348L48.8398 24.6218L48.8392 24.6229L49.6982 25.1348ZM50.5059 23.8643L51.3368 24.4206L51.3373 24.4198L50.5059 23.8643ZM51.4355 22.54L50.6317 21.9451L50.6317 21.9452L51.4355 22.54ZM52.4893 21.2158L51.7257 20.5701L51.7257 20.5701L52.4893 21.2158ZM53.9971 19.5732L53.2805 18.8758L53.2801 18.8761L53.9971 19.5732ZM55.4785 18.1387L54.8211 17.3852L54.821 17.3852L55.4785 18.1387ZM56.5859 17.209L55.9602 16.429L55.9601 16.429L56.5859 17.209ZM57.6396 16.3975L58.2324 17.2028L58.2334 17.2021L57.6396 16.3975ZM58.7207 15.6416L58.1661 14.8095L58.1661 14.8095L58.7207 15.6416ZM59.9355 14.8828L59.4295 14.0203L59.4295 14.0203L59.9355 14.8828ZM61.1777 14.1709L60.6909 13.2974L60.6909 13.2974L61.1777 14.1709ZM62.6094 13.4561L62.1942 12.5463L62.1933 12.5467L62.6094 13.4561ZM64.1768 12.7861L63.8104 11.8557L63.8104 11.8557L64.1768 12.7861ZM65.5273 12.2812L65.1962 11.3377L65.1962 11.3377L65.5273 12.2812ZM67.1201 11.7568L67.4211 12.7105L68.1144 12.4917L68.1201 11.7646L67.1201 11.7568ZM67.1348 9.87793L66.1348 9.87013L66.1348 9.87013L67.1348 9.87793ZM67.1494 8V7H66.1572L66.1494 7.9922L67.1494 8ZM83.5156 8H84.5156V7H83.5156V8ZM70.4971 11.3516V10.3516H69.4971V11.3516H70.4971ZM70.4971 24.5938V25.5938H71.4971V24.5938H70.4971ZM67.1475 24.5938L66.1475 24.5938L66.1475 25.5938H67.1475V24.5938ZM67.1338 15.2969L67.2051 14.2994L67.0973 14.2917L66.9905 14.3072L67.1338 15.2969ZM66.5801 15.4795L66.2596 14.5323L66.2595 14.5323L66.5801 15.4795ZM65.3916 15.9219L65.02 14.9935L65.02 14.9935L65.3916 15.9219ZM64.7168 16.2119L63.998 15.5167L63.986 15.5291L63.9745 15.5418L64.7168 16.2119ZM64.6084 16.2588L64.8019 17.2399L64.8092 17.2384L64.6084 16.2588ZM63.6758 16.6914L64.1141 17.5902L64.1153 17.5896L63.6758 16.6914ZM62.8252 17.1484L63.8249 17.1244L63.8246 17.1121L63.824 17.0998L62.8252 17.1484ZM62.7852 17.1777L63.0444 16.2119L63.0256 16.2069L63.0066 16.2026L62.7852 17.1777ZM62.4482 17.3203L62.9039 18.2105L62.9061 18.2093L62.4482 17.3203ZM61.5293 17.8516L61.0094 16.9973L61.0084 16.9979L61.5293 17.8516ZM60.3545 18.6016L60.9104 19.4328L60.9114 19.4321L60.3545 18.6016ZM59.8008 19.0264L58.8033 18.9548L58.8008 18.9905V19.0264H59.8008ZM59.7061 19.0996L59.5118 18.1186L59.4988 18.1213L59.7061 19.0996ZM58.9932 19.5996L58.3792 18.8103L58.3784 18.8109L58.9932 19.5996ZM57.6436 20.7383L56.9757 19.994L56.9757 19.994L57.6436 20.7383ZM56.3213 22.0088L57.0412 22.7029L57.0418 22.7023L56.3213 22.0088ZM55.5332 22.8379L56.2684 23.5158L56.27 23.514L55.5332 22.8379ZM54.9287 23.54L54.1607 22.8996L54.1599 22.9005L54.9287 23.54ZM54.123 24.5674L53.3204 23.9709L53.3197 23.9718L54.123 24.5674ZM53.2041 25.8916L52.37 25.34L52.3695 25.3408L53.2041 25.8916ZM52.3604 27.2432L51.4928 26.7458L51.4928 26.7458L52.3604 27.2432ZM51.6504 28.5811L50.7559 28.1341L50.7554 28.135L51.6504 28.5811ZM50.96 30.0674L50.0401 29.6752L50.0396 29.6763L50.96 30.0674ZM50.3711 31.5938L49.4273 31.2633L49.4273 31.2633L50.3711 31.5938ZM49.8711 33.1621L48.9099 32.8864L48.9095 32.8875L49.8711 33.1621ZM49.6143 34.1074L48.6361 33.8996L48.6361 33.8997L49.6143 34.1074ZM49.5566 34.4053L50.5434 34.5675L50.5435 34.5667L49.5566 34.4053ZM49.459 34.8369L48.4885 34.5959L48.4878 34.5987L49.459 34.8369ZM49.3516 35.3506L48.3619 35.2069L48.3619 35.2071L49.3516 35.3506ZM49.2705 35.7559L50.2417 35.9941L50.2417 35.994L49.2705 35.7559ZM49.1074 36.8369L48.1156 36.7096L48.1154 36.7107L49.1074 36.8369ZM48.9434 38.2969L47.9476 38.2048L47.9476 38.2048L48.9434 38.2969ZM48.8477 41.2832L47.8478 41.2664L47.8478 41.2665L48.8477 41.2832ZM48.8076 43.6748L47.8078 43.6581L47.7907 44.6748H48.8076V43.6748ZM51.6973 43.6748H52.6973V42.6748H51.6973V43.6748ZM51.6973 47.0801V48.0801H52.6973V47.0801H51.6973ZM46.3496 47.0801V46.0801H45.3496V47.0801H46.3496ZM46.3496 53.0264H45.3496V54.0264H46.3496V53.0264ZM104.261 53.0264V54.0264H105.261V53.0264H104.261ZM104.261 47.0801H105.261V46.0801H104.261V47.0801ZM98.9121 47.0801H97.9121V48.0801H98.9121V47.0801ZM98.9121 43.7285L98.9028 42.7286L97.9121 42.7378V43.7285H98.9121ZM101.748 43.7021L101.757 44.7021L102.734 44.693L102.748 43.7159L101.748 43.7021ZM101.725 39.7559L102.724 39.722L102.724 39.7213L101.725 39.7559ZM101.589 37.4316L102.582 37.3178L102.582 37.3177L101.589 37.4316ZM101.372 35.918L102.358 35.7519L102.358 35.7507L101.372 35.918ZM101.099 34.5674L102.069 34.3242L102.069 34.3241L101.099 34.5674ZM100.94 33.8916L99.9552 34.0629L99.9555 34.0646L100.94 33.8916ZM100.702 33.0264L99.7429 33.3089L99.7429 33.3089L100.702 33.0264ZM100.221 31.54L101.164 31.2082L101.164 31.2071L100.221 31.54ZM99.6094 29.9727L100.53 29.5823L100.53 29.5814L99.6094 29.9727ZM98.8945 28.4316L99.7864 27.9794L99.7864 27.9793L98.8945 28.4316ZM98.0293 26.874L98.8877 26.3611L98.8877 26.3611L98.0293 26.874ZM97.4268 25.9287L98.1615 25.2504L98.1584 25.247L97.4268 25.9287ZM97.332 25.7979L98.0634 26.4798L98.1018 26.4387L98.1353 26.3935L97.332 25.7979ZM97.0664 25.3643L97.8986 24.8098L97.8977 24.8084L97.0664 25.3643ZM96.4336 24.4863L97.2264 23.8769L97.2264 23.8768L96.4336 24.4863ZM95.54 23.3779L96.309 22.7387L96.309 22.7386L95.54 23.3779ZM94.2148 21.9258L94.93 21.2268L94.93 21.2268L94.2148 21.9258ZM92.8906 20.6553L92.2348 21.4101L92.2354 21.4107L92.8906 20.6553ZM91.7295 19.6885L92.3552 18.9084L92.3544 18.9078L91.7295 19.6885ZM91.0381 19.1885L91.0324 20.1885H91.0381V19.1885ZM90.9707 19.1348H91.9707V19.1148L91.9699 19.0948L90.9707 19.1348ZM90.0117 18.4453L90.5635 17.6113L90.5631 17.6111L90.0117 18.4453ZM88.3779 17.4326L88.8676 16.5607L88.867 16.5604L88.3779 17.4326ZM87.6621 17.0674L87.9819 18.0149L87.9854 18.0137L87.6621 17.0674ZM87.6221 17.0264L88.6221 17.0264L88.622 17.0182L87.6221 17.0264ZM87.5674 17L88.0037 17.8998L88.0125 17.8955L88.0213 17.8911L87.5674 17ZM87.5 16.9775L88.463 16.708L88.458 16.6903L88.4524 16.6727L87.5 16.9775ZM86.7305 16.5791L87.1503 15.6715L87.1494 15.6711L86.7305 16.5791ZM85.5693 16.0586L85.1782 16.9789L85.1808 16.98L85.5693 16.0586ZM85.083 15.873L84.9166 16.8591L84.9232 16.8602L85.083 15.873ZM84.8936 15.7998L84.4089 16.6745L84.4145 16.6776L84.8936 15.7998ZM84.1504 15.5186L84.4808 14.5747L84.4801 14.5745L84.1504 15.5186ZM83.5156 15.2969L83.8453 14.3528L82.5156 13.8884V15.2969H83.5156ZM83.5156 24.5938V25.5938H84.5156V24.5938H83.5156ZM80.167 24.5938H79.167V25.5938H80.167V24.5938ZM80.167 11.3516H81.167V10.3516H80.167V11.3516ZM49.1045 59.9316L48.1045 59.9322C48.1046 60.0964 48.1408 60.3462 48.1712 60.5389C48.2072 60.767 48.2562 61.0397 48.3098 61.3054L49.29 61.1074L50.2702 60.9094C50.2219 60.67 50.1781 60.4255 50.1468 60.2273C50.1311 60.1279 50.1194 60.0451 50.1118 59.9831C50.1025 59.9061 50.1045 59.8999 50.1045 59.9311L49.1045 59.9316ZM49.29 61.1074L48.3098 61.3055C48.4148 61.8248 48.5893 62.5954 48.6998 63.0297L49.6689 62.7832L50.6381 62.5367C50.5368 62.1387 50.3695 61.4008 50.2702 60.9094L49.29 61.1074ZM49.6689 62.7832L48.7001 63.0309C48.7526 63.2361 48.8 63.4234 48.8342 63.5604C48.8514 63.6292 48.8649 63.6837 48.874 63.7209C48.8786 63.74 48.8814 63.7517 48.8827 63.7576C48.8835 63.7611 48.8829 63.7586 48.8817 63.753C48.8812 63.7506 48.8795 63.7422 48.8774 63.7309C48.8764 63.7252 48.8745 63.7146 48.8724 63.7011C48.8711 63.6923 48.8663 63.6603 48.8635 63.6189L49.8613 63.5527L50.8591 63.4866C50.8564 63.4447 50.8515 63.4122 50.85 63.4027C50.8479 63.3885 50.8458 63.377 50.8446 63.3703C50.8421 63.3568 50.8398 63.3457 50.8386 63.34C50.836 63.3277 50.8334 63.3161 50.8316 63.3082C50.8276 63.2911 50.8227 63.2707 50.8175 63.2492C50.8069 63.2054 50.7921 63.1457 50.7745 63.0753C50.7392 62.9339 50.6908 62.743 50.6378 62.5355L49.6689 62.7832ZM49.8613 63.5527L48.8639 63.4815C48.8243 64.0364 49.22 64.3252 49.293 64.3756C49.4084 64.4554 49.5132 64.491 49.5449 64.5015C49.6241 64.528 49.6892 64.5382 49.7033 64.5405C49.7473 64.5477 49.7833 64.5504 49.7925 64.5511C49.82 64.5533 49.846 64.5543 49.8614 64.5548C49.897 64.5561 49.9437 64.5571 49.9989 64.5579C50.1117 64.5597 50.2855 64.5612 50.5343 64.5624C51.033 64.5649 51.8452 64.5664 53.1016 64.5664V63.5664V62.5664C51.8459 62.5664 51.0378 62.5649 50.5442 62.5624C50.2969 62.5612 50.1315 62.5597 50.0294 62.5582C49.9771 62.5574 49.9473 62.5566 49.9333 62.5561C49.924 62.5558 49.9319 62.5559 49.9476 62.5571C49.9508 62.5574 49.9824 62.5597 50.0235 62.5663C50.0362 62.5684 50.1003 62.5784 50.1788 62.6046C50.2101 62.6151 50.3146 62.6505 50.4299 62.7302C50.5027 62.7805 50.8984 63.0692 50.8588 63.6239L49.8613 63.5527ZM53.1016 63.5664L52.121 63.7625L52.1454 63.8846L53.126 63.6885L54.1066 63.4924L54.0821 63.3703L53.1016 63.5664ZM53.126 63.6885L52.1454 63.8846C52.145 63.8826 52.152 63.922 52.1692 64.0243C52.1846 64.1159 52.2054 64.2411 52.2302 64.3913C52.2797 64.6915 52.3447 65.0888 52.4134 65.5111L53.4004 65.3506L54.3874 65.1901C54.2529 64.3627 54.1251 63.5852 54.1066 63.4923L53.126 63.6885ZM53.4004 65.3506L52.4133 65.5105C52.5512 66.3619 52.8459 68.117 53.0681 69.4114L54.0537 69.2422L55.0393 69.0729C54.8176 67.7818 54.5241 66.0335 54.3875 65.1907L53.4004 65.3506ZM54.0537 69.2422L53.0681 69.4114C53.2905 70.7062 53.6186 72.5819 53.7968 73.58L54.7812 73.4043L55.7657 73.2286C55.5884 72.2354 55.261 70.3641 55.0393 69.0729L54.0537 69.2422ZM54.7812 73.4043L53.7968 73.58C53.9752 74.5791 54.2526 76.0802 54.4147 76.9184L55.3965 76.7285L56.3783 76.5386C56.2184 75.7121 55.9428 74.2208 55.7657 73.2286L54.7812 73.4043ZM55.3965 76.7285L54.4148 76.919C54.5773 77.7567 54.8339 79.0161 54.9864 79.7227L55.9639 79.5117L56.9414 79.3008C56.7924 78.6104 56.5386 77.3649 56.3782 76.538L55.3965 76.7285ZM55.9639 79.5117L54.9865 79.7234C55.1391 80.428 55.34 81.3232 55.6015 82.4196L56.5742 82.1875L57.5469 81.9554C57.2888 80.8736 57.0911 79.992 56.9412 79.3L55.9639 79.5117ZM56.5742 82.1875L55.8749 82.9023L56.2343 83.2539L56.9336 82.5391L57.6329 81.8242L57.2735 81.4727L56.5742 82.1875ZM56.9336 82.5391L56.2351 83.2547C56.4848 83.4984 56.959 83.8768 57.3105 84.1233L57.8848 83.3047L58.4591 82.486C58.1602 82.2764 57.7788 81.9666 57.6321 81.8234L56.9336 82.5391ZM57.8848 83.3047L57.3121 84.1245C57.652 84.362 58.1907 84.7166 58.5219 84.9193L59.0439 84.0664L59.566 83.2135C59.2738 83.0346 58.769 82.7025 58.4574 82.4849L57.8848 83.3047ZM59.0439 84.0664L58.5236 84.9204C58.8549 85.1222 59.5509 85.5189 60.0774 85.8064L60.5566 84.9287L61.0359 84.051C60.5232 83.7711 59.8577 83.3912 59.5643 83.2124L59.0439 84.0664ZM60.5566 84.9287L60.0771 85.8062C60.6092 86.097 61.5436 86.5847 62.1616 86.8942L62.6094 86L63.0571 85.1058C62.4576 84.8056 61.5446 84.3291 61.0362 84.0512L60.5566 84.9287ZM62.6094 86L62.162 86.8943C62.7811 87.204 63.7872 87.6871 64.4051 87.9724L64.8242 87.0645L65.2434 86.1565C64.6438 85.8797 63.6565 85.4057 63.0568 85.1057L62.6094 86ZM64.8242 87.0645L64.4054 87.9725C65.0211 88.2565 65.8504 88.6221 66.2566 88.7875L66.6338 87.8613L67.011 86.9352C66.6446 86.786 65.8459 86.4344 65.2431 86.1564L64.8242 87.0645ZM66.6338 87.8613L66.2566 88.7875C66.6487 88.9472 67.184 89.1562 67.4526 89.254L67.7949 88.3145L68.1372 87.3749C67.901 87.2888 67.391 87.0899 67.0109 86.9352L66.6338 87.8613ZM67.7949 88.3145L67.4533 89.2543C67.7278 89.3541 68.1973 89.5074 68.5106 89.6003L68.7949 88.6416L69.0792 87.6829C68.7983 87.5996 68.3676 87.4586 68.1365 87.3746L67.7949 88.3145ZM68.7949 88.6416L68.5122 89.6008C68.8209 89.6918 69.3319 89.8324 69.6569 89.9147L69.9023 88.9453L70.1478 87.9759C69.8495 87.9004 69.3633 87.7666 69.0776 87.6824L68.7949 88.6416ZM69.9023 88.9453L69.6589 89.9152C69.9966 90 70.59 90.126 70.9942 90.1989L71.1719 89.2148L71.3495 88.2307C70.9815 88.1643 70.4327 88.0474 70.1458 87.9754L69.9023 88.9453ZM71.1719 89.2148L70.9929 90.1987C71.405 90.2736 72.168 90.3844 72.7026 90.4473L72.8193 89.4541L72.9361 88.4609C72.4314 88.4016 71.7114 88.2966 71.3508 88.231L71.1719 89.2148ZM72.8193 89.4541L72.7027 90.4473C73.2179 90.5078 73.7404 90.5677 73.8556 90.5791L73.9541 89.584L74.0526 88.5888C73.9604 88.5797 73.4612 88.5226 72.9359 88.4609L72.8193 89.4541ZM73.9541 89.584L73.8487 90.5784C73.8392 90.5774 73.8088 90.5741 73.7701 90.5668C73.7519 90.5634 73.7114 90.5553 73.6612 90.5398C73.6478 90.5357 73.4805 90.4894 73.3166 90.3528C73.2192 90.2598 73.0341 89.9702 72.9738 89.7687C72.9586 89.5236 73.078 89.1072 73.1842 88.9496C73.2644 88.863 73.414 88.7447 73.4766 88.7074C73.5188 88.6856 73.5925 88.6533 73.6233 88.6419C73.7229 88.6067 73.8074 88.596 73.8099 88.5956C73.8496 88.5898 73.8805 88.5879 73.8814 88.5878C73.8896 88.5873 73.8948 88.587 73.895 88.587C73.8958 88.587 73.8918 88.5872 73.8806 88.5875C73.8702 88.5878 73.8562 88.5881 73.8381 88.5884C73.7644 88.5899 73.6405 88.5916 73.456 88.5934C73.0886 88.5971 72.4933 88.6015 71.6087 88.6066C69.84 88.6169 66.9196 88.6302 62.3624 88.6475L62.3662 89.6475L62.37 90.6475C66.9274 90.6302 69.8495 90.6169 71.6203 90.6066C72.5054 90.6015 73.1042 90.5971 73.4762 90.5933C73.6615 90.5915 73.7937 90.5897 73.8777 90.588C73.9171 90.5873 73.9555 90.5863 73.9852 90.585C73.9932 90.5846 74.0049 90.5841 74.0181 90.5831C74.0241 90.5827 74.0586 90.5805 74.1007 90.5743C74.1043 90.5738 74.1896 90.563 74.2896 90.5276C74.3206 90.5161 74.3943 90.4838 74.4366 90.4619C74.4993 90.4246 74.649 90.3062 74.7292 90.2196C74.8354 90.0619 74.9549 89.6455 74.9396 89.4003C74.8794 89.1989 74.6943 88.9092 74.5968 88.8162C74.4327 88.6795 74.2652 88.6331 74.2516 88.6289C74.2011 88.6133 74.1603 88.6052 74.1417 88.6016C74.1021 88.5941 74.0705 88.5907 74.0595 88.5896L73.9541 89.584ZM62.3662 89.6475L62.8159 88.7543L61.4116 88.0472L60.9619 88.9404L60.5122 89.8336L61.9165 90.5406L62.3662 89.6475ZM60.9619 88.9404L61.4113 88.0471C60.6438 87.661 59.6611 87.1479 59.2326 86.91L58.7471 87.7842L58.2615 88.6584C58.7248 88.9157 59.7355 89.4428 60.5125 89.8337L60.9619 88.9404ZM58.7471 87.7842L59.2335 86.9104C58.8008 86.6696 58.0972 86.2569 57.6799 85.9985L57.1533 86.8486L56.6268 87.6988C57.0717 87.9744 57.8022 88.4027 58.2607 88.6579L58.7471 87.7842ZM57.1533 86.8486L57.6796 85.9983C57.2693 85.7444 56.6607 85.3332 56.3452 85.0983L55.748 85.9004L55.1509 86.7025C55.5193 86.9768 56.1762 87.4199 56.627 87.6989L57.1533 86.8486ZM55.748 85.9004L56.3467 85.0994C56.0477 84.8759 55.5377 84.4308 55.2423 84.1337L54.5332 84.8389L53.8241 85.544C54.1822 85.9041 54.7655 86.4145 55.1494 86.7014L55.748 85.9004ZM54.5332 84.8389L55.2422 84.1337C55.095 83.9856 54.9432 83.8198 54.8185 83.6732C54.7563 83.6001 54.7045 83.536 54.6654 83.4847C54.6219 83.4277 54.6091 83.4061 54.6132 83.4131L53.75 83.918L52.8868 84.4229C53.0622 84.7227 53.4874 85.2055 53.8242 85.544L54.5332 84.8389ZM53.75 83.918L54.6138 83.4142C54.5568 83.3164 54.4208 83.0088 54.3395 82.7646L53.3906 83.0801L52.4417 83.3956C52.5485 83.7167 52.7358 84.1639 52.8862 84.4218L53.75 83.918ZM53.3906 83.0801L54.3401 82.7662C54.261 82.527 54.0907 81.8923 53.9694 81.3675L52.9951 81.5928L52.0208 81.818C52.1469 82.3634 52.3333 83.0678 52.4412 83.394L53.3906 83.0801ZM52.9951 81.5928L53.9694 81.3676C53.8494 80.8481 53.5343 79.3412 53.2696 78.0186L52.2891 78.2148L51.3085 78.4111C51.5731 79.7331 51.8933 81.2664 52.0208 81.818L52.9951 81.5928ZM52.2891 78.2148L53.2696 78.0186C53.0064 76.7033 52.5729 74.4105 52.3065 72.9294L51.3223 73.1064L50.3381 73.2835C50.6064 74.7753 51.0423 77.081 51.3085 78.4111L52.2891 78.2148ZM51.3223 73.1064L52.3065 72.9297C52.0399 71.4447 51.6996 69.5137 51.5501 68.6407L50.5645 68.8096L49.5788 68.9784C49.7296 69.8587 50.0709 71.7954 50.338 73.2832L51.3223 73.1064ZM50.5645 68.8096L51.5501 68.6407C51.4003 67.7663 51.2646 66.9772 51.2228 66.7424L50.2383 66.918L49.2538 67.0935C49.2941 67.3197 49.4283 68.0998 49.5788 68.9784L50.5645 68.8096ZM50.2383 66.918L50.2376 65.918L47.348 65.9199L47.3486 66.9199L47.3493 67.9199L50.239 67.918L50.2383 66.918ZM47.3486 66.9199L48.3025 66.6196L48.1023 65.9838L47.1484 66.2842L46.1946 66.5845L46.3948 67.2203L47.3486 66.9199ZM47.1484 66.2842L48.1026 65.985C48.0014 65.662 47.7576 64.7768 47.5645 64.0218L46.5957 64.2695L45.6269 64.5173C45.8217 65.2789 46.0762 66.207 46.1942 66.5834L47.1484 66.2842ZM46.5957 64.2695L47.5645 64.0218C47.3717 63.2678 47.1451 62.3225 47.0614 61.9268L46.083 62.1338L45.1047 62.3408C45.1971 62.7775 45.4318 63.7545 45.6269 64.5173L46.5957 64.2695ZM46.083 62.1338L47.0614 61.9268C46.976 61.5236 46.8723 60.9609 46.8319 60.6895L45.8428 60.8369L44.8537 60.9843C44.9018 61.3074 45.0139 61.9117 45.1047 62.3408L46.083 62.1338ZM45.8428 60.8369L46.8319 60.6895C46.7886 60.3992 46.7437 60.0399 46.7317 59.9003L45.7354 59.9854L44.739 60.0704C44.7562 60.2724 44.8084 60.68 44.8537 60.9843L45.8428 60.8369ZM45.7354 59.9854L46.7318 59.9008L46.7054 59.5902L45.709 59.6748L44.7126 59.7594L44.7389 60.07L45.7354 59.9854ZM45.709 59.6748V60.6748H49.1035V59.6748V58.6748H45.709V59.6748ZM49.1035 59.6748L48.1035 59.6786L48.1045 59.9354L49.1045 59.9316L50.1045 59.9278L50.1035 59.671L49.1035 59.6748ZM104.878 59.9854L103.883 59.8847C103.868 60.0336 103.821 60.4 103.778 60.6895L104.767 60.8369L105.756 60.9843C105.801 60.6793 105.853 60.2787 105.873 60.0861L104.878 59.9854ZM104.767 60.8369L103.778 60.6895C103.737 60.9609 103.633 61.5235 103.548 61.9268L104.526 62.1338L105.505 62.3408C105.595 61.9117 105.708 61.3074 105.756 60.9843L104.767 60.8369ZM104.526 62.1338L103.548 61.9256C103.464 62.3235 103.25 63.2221 103.074 63.9152L104.043 64.1611L105.012 64.4071C105.191 63.7034 105.412 62.7765 105.504 62.342L104.526 62.1338ZM104.043 64.1611L103.074 63.9145C102.9 64.5971 102.657 65.4874 102.305 66.6223L103.261 66.918L104.216 67.2137C104.578 66.0449 104.83 65.1219 105.012 64.4078L104.043 64.1611ZM103.261 66.918V65.918H100.37V66.918V67.918H103.261V66.918ZM100.37 66.918L99.3855 66.7431L99.3592 66.8915L100.344 67.0664L101.328 67.2413L101.355 67.0929L100.37 66.918ZM100.344 67.0664L99.3605 66.8842C99.3438 66.9741 99.1707 67.9769 98.9774 69.0999L99.9629 69.2695L100.948 69.4392C101.046 68.8744 101.137 68.3443 101.206 67.9452C101.24 67.7457 101.269 67.5791 101.29 67.4574C101.301 67.3966 101.31 67.3473 101.316 67.3108C101.319 67.2926 101.322 67.2779 101.324 67.2668C101.325 67.2613 101.326 67.2569 101.326 67.2536C101.327 67.25 101.327 67.2486 101.327 67.2486L100.344 67.0664ZM99.9629 69.2695L98.9774 69.0999C98.7834 70.2265 98.4421 72.1571 98.22 73.3889L99.2041 73.5664L100.188 73.7439C100.411 72.5079 100.753 70.572 100.948 69.4392L99.9629 69.2695ZM99.2041 73.5664L98.2201 73.3885C97.9976 74.6188 97.6583 76.4257 97.4661 77.4003L98.4473 77.5938L99.4284 77.7872C99.623 76.7997 99.9644 74.9821 100.188 73.7443L99.2041 73.5664ZM98.4473 77.5938L97.4661 77.4003C97.2736 78.3769 96.9847 79.7812 96.8254 80.5168L97.8027 80.7285L98.7801 80.9402C98.9427 80.1896 99.2341 78.7727 99.4284 77.7872L98.4473 77.5938ZM97.8027 80.7285L96.8254 80.5168C96.665 81.2574 96.4631 82.1074 96.38 82.4035L97.3428 82.6738L98.3056 82.9441C98.4062 82.5857 98.6187 81.6854 98.7801 80.9402L97.8027 80.7285ZM97.3428 82.6738L96.38 82.4035C96.2961 82.7023 96.1631 83.0658 96.1054 83.1852L97.0059 83.6201L97.9063 84.055C98.0356 83.7874 98.2058 83.2994 98.3055 82.9442L97.3428 82.6738ZM97.0059 83.6201L96.1044 83.1872C96.0521 83.2962 95.8848 83.5589 95.754 83.7204L96.5312 84.3496L97.3085 84.9788C97.5147 84.7242 97.7739 84.3309 97.9073 84.0531L97.0059 83.6201ZM96.5312 84.3496L95.7542 83.7202C95.6152 83.8918 95.3394 84.1887 95.1647 84.3542L95.8525 85.0801L96.5404 85.8059C96.7741 85.5845 97.1102 85.2236 97.3083 84.979L96.5312 84.3496ZM95.8525 85.0801L95.1658 84.3532C94.9987 84.5111 94.5964 84.844 94.2888 85.0734L94.8867 85.875L95.4846 86.6766C95.8306 86.4185 96.2979 86.0351 96.5393 85.8069L95.8525 85.0801ZM94.8867 85.875L94.2889 85.0734C93.9869 85.2986 93.4151 85.6875 93.0344 85.9249L93.5635 86.7734L94.0926 87.622C94.5144 87.359 95.1328 86.939 95.4846 86.6766L94.8867 85.875ZM93.5635 86.7734L93.0339 85.9252C92.6477 86.1663 91.9308 86.5903 91.4503 86.8619L91.9424 87.7324L92.4345 88.603C92.9349 88.3201 93.6775 87.8811 94.0931 87.6217L93.5635 86.7734ZM91.9424 87.7324L91.4506 86.8617C90.9842 87.1251 89.9706 87.6597 87.7932 88.7539L88.2422 89.6475L88.6912 90.541C90.8663 89.4479 91.9202 88.8934 92.4341 88.6032L91.9424 87.7324ZM88.2422 89.6475L88.246 88.6475L82.3583 88.625L82.3545 89.625L82.3507 90.625L88.2384 90.6475L88.2422 89.6475ZM82.3545 89.625L82.3583 88.625C80.7424 88.6188 79.2948 88.6111 78.2636 88.6037C77.7476 88.6 77.3372 88.5964 77.0624 88.5931C76.9242 88.5914 76.8236 88.5898 76.7618 88.5884C76.7283 88.5877 76.7158 88.5872 76.716 88.5872C76.7168 88.5872 76.7226 88.5875 76.7315 88.5882C76.7327 88.5883 76.7651 88.5904 76.8066 88.5968C76.8094 88.5973 76.8973 88.6091 77.0003 88.6474C77.032 88.6598 77.1075 88.6945 77.1506 88.7179C77.2138 88.7575 77.3626 88.8812 77.4412 88.9708C77.5415 89.1282 77.6505 89.5348 77.6343 89.7707C77.5764 89.9654 77.3986 90.2495 77.3036 90.3429C77.1401 90.4834 76.9719 90.532 76.9561 90.537C76.9045 90.5535 76.8627 90.5621 76.8438 90.5658C76.8036 90.5736 76.772 90.5771 76.7621 90.5782L76.6543 89.584L76.5465 88.5898C76.5351 88.5911 76.5023 88.5947 76.4613 88.6027C76.442 88.6064 76.3999 88.6151 76.348 88.6317C76.3319 88.6368 76.1636 88.6855 76 88.8261C75.9049 88.9195 75.7271 89.2037 75.6692 89.3983C75.653 89.6343 75.762 90.0409 75.8623 90.1984C75.941 90.288 76.0898 90.4118 76.1531 90.4514C76.1962 90.4748 76.2718 90.5096 76.3036 90.5221C76.4071 90.5605 76.4958 90.5725 76.4996 90.5731C76.5433 90.5799 76.5792 90.5824 76.5851 90.5828C76.5986 90.5838 76.6104 90.5844 76.6183 90.5848C76.6472 90.5862 76.6832 90.5872 76.717 90.5879C76.7897 90.5896 76.899 90.5912 77.0382 90.5929C77.3181 90.5963 77.7324 90.6 78.2492 90.6037C79.2834 90.6111 80.7333 90.6188 82.3507 90.625L82.3545 89.625ZM76.6543 89.584L76.7523 90.5792C76.8684 90.5677 77.3913 90.5077 77.9058 90.4473L77.7891 89.4541L77.6723 88.4609C77.1475 88.5226 76.6487 88.5797 76.5563 88.5888L76.6543 89.584ZM77.7891 89.4541L77.9057 90.4473C78.4409 90.3844 79.2035 90.2736 79.6155 90.1987L79.4365 89.2148L79.2576 88.231C78.8969 88.2966 78.1774 88.4016 77.6725 88.4609L77.7891 89.4541ZM79.4365 89.2148L79.6142 90.1989C80.0181 90.126 80.6122 90 80.9499 89.9151L80.7061 88.9453L80.4623 87.9755C80.1763 88.0474 79.6271 88.1643 79.2589 88.2307L79.4365 89.2148ZM80.7061 88.9453L80.9511 89.9148C81.2771 89.8324 81.7878 89.6917 82.0961 89.6008L81.8135 88.6416L81.5308 87.6824C81.2449 87.7666 80.7593 87.9004 80.461 87.9758L80.7061 88.9453ZM81.8135 88.6416L82.0978 89.6003C82.4107 89.5075 82.881 89.3541 83.1557 89.2541L82.8135 88.3145L82.4712 87.3748C82.2414 87.4586 81.8105 87.5994 81.5292 87.6829L81.8135 88.6416ZM82.8135 88.3145L83.1551 89.2543C83.4249 89.1562 83.9601 88.947 84.3518 88.7875L83.9746 87.8613L83.5975 86.9352C83.2169 87.0901 82.7079 87.2888 82.4718 87.3746L82.8135 88.3145ZM83.9746 87.8613L84.3518 88.7875C84.7578 88.6221 85.5876 88.2566 86.2033 87.9724L85.7842 87.0645L85.365 86.1565C84.7632 86.4344 83.9639 86.7859 83.5974 86.9352L83.9746 87.8613ZM85.7842 87.0645L86.203 87.9725C86.8216 87.6872 87.828 87.204 88.4467 86.8942L87.999 86L87.5513 85.1058C86.9524 85.4057 85.9653 85.8797 85.3653 86.1564L85.7842 87.0645ZM87.999 86L88.4465 86.8943C89.0652 86.5848 89.9999 86.097 90.5317 85.806L90.0518 84.9287L89.5718 84.0514C89.0642 84.3291 88.1515 84.8056 87.5516 85.1057L87.999 86ZM90.0518 84.9287L90.5306 85.8066C91.0615 85.517 91.7959 85.0937 92.1734 84.8591L91.6455 84.0098L91.1176 83.1605C90.782 83.3691 90.0824 83.7729 89.5729 84.0508L90.0518 84.9287ZM91.6455 84.0098L92.1734 84.8591C92.5448 84.6282 93.0867 84.269 93.3892 84.0527L92.8076 83.2393L92.226 82.4258C91.9645 82.6127 91.4593 82.9481 91.1176 83.1605L91.6455 84.0098ZM92.8076 83.2393L93.3896 84.0525C93.7226 83.8142 94.1505 83.4606 94.7232 82.9056L94.0273 82.1875L93.3314 81.4694C92.8092 81.9754 92.4576 82.26 92.2256 82.4261L92.8076 83.2393ZM94.0273 82.1875L94.9968 82.4329L95.195 81.6497L94.2256 81.4043L93.2562 81.1589L93.0579 81.9421L94.0273 82.1875ZM94.2256 81.4043L95.1953 81.6487C95.3079 81.2019 95.5083 80.3249 95.6423 79.6927L94.6641 79.4854L93.6858 79.278C93.5551 79.8944 93.3604 80.7452 93.2559 81.1599L94.2256 81.4043ZM94.6641 79.4854L95.6423 79.6927C95.7764 79.0601 96.0213 77.8365 96.1864 76.9693L95.2041 76.7822L94.2218 76.5951C94.0585 77.4523 93.8164 78.662 93.6858 79.278L94.6641 79.4854ZM95.2041 76.7822L96.1863 76.9699C96.3521 76.1024 96.6447 74.5053 96.8381 73.4171L95.8535 73.2422L94.8689 73.0672C94.6766 74.1496 94.3856 75.7378 94.2219 76.5945L95.2041 76.7822ZM95.8535 73.2422L96.838 73.4176C97.0318 72.3302 97.3598 70.4558 97.5675 69.2498L96.582 69.0801L95.5965 68.9103C95.3894 70.113 95.062 71.9836 94.869 73.0668L95.8535 73.2422ZM96.582 69.0801L97.5676 69.2494C97.7747 68.0437 98.0576 66.3622 98.196 65.5111L97.209 65.3506L96.222 65.1901C96.0848 66.0332 95.8031 67.7083 95.5965 68.9108L96.582 69.0801ZM97.209 65.3506L98.196 65.5111C98.3353 64.6548 98.4562 63.9256 98.4889 63.7548L97.5068 63.5664L96.5247 63.378C96.4851 63.5845 96.3582 64.3524 96.222 65.1901L97.209 65.3506ZM97.5068 63.5664V64.5664H99.1279V63.5664V62.5664H97.5068V63.5664ZM99.1279 63.5664L99.1279 64.5664C99.5773 64.5664 99.9882 64.5633 100.289 64.5583C100.438 64.5558 100.566 64.5527 100.66 64.5489C100.705 64.5472 100.754 64.5448 100.797 64.5412C100.814 64.5398 100.856 64.5363 100.903 64.5284C100.92 64.5257 100.984 64.5152 101.061 64.4895C101.093 64.479 101.191 64.4456 101.301 64.3728C101.361 64.333 101.748 64.0718 101.748 63.5391H100.748H99.748C99.748 63.2727 99.8519 63.067 99.9489 62.9381C100.04 62.817 100.138 62.744 100.194 62.7068C100.303 62.6344 100.4 62.6015 100.431 62.5914C100.505 62.5667 100.565 62.5571 100.576 62.5553C100.598 62.5518 100.614 62.5499 100.62 62.5492C100.627 62.5484 100.632 62.548 100.633 62.5479C100.633 62.5479 100.618 62.549 100.58 62.5505C100.51 62.5533 100.4 62.5561 100.255 62.5585C99.9689 62.5634 99.5698 62.5664 99.1279 62.5664L99.1279 63.5664ZM100.748 63.5391L101.745 63.6123C101.742 63.6643 101.734 63.705 101.734 63.7056C101.732 63.7166 101.731 63.7245 101.73 63.7269C101.729 63.732 101.729 63.7335 101.73 63.7286C101.732 63.7198 101.735 63.7037 101.741 63.6789C101.753 63.6301 101.77 63.5595 101.791 63.4712C101.834 63.2952 101.893 63.0559 101.958 62.7951L100.988 62.5527L100.018 62.3103C99.9524 62.5734 99.8922 62.8166 99.8481 62.9975C99.8262 63.0877 99.8077 63.1641 99.7945 63.2205C99.7879 63.2482 99.7819 63.2741 99.7772 63.2956C99.7749 63.3058 99.7719 63.3194 99.7691 63.3337C99.7677 63.3405 99.7654 63.3521 99.763 63.3661C99.7624 63.3697 99.7547 63.4125 99.7507 63.4658L100.748 63.5391ZM100.988 62.5527L101.958 62.7961C102.093 62.2571 102.269 61.4836 102.349 61.0654L101.367 60.877L100.385 60.6885C100.314 61.0583 100.148 61.7933 100.018 62.3094L100.988 62.5527ZM101.367 60.877L102.349 61.0667C102.39 60.854 102.427 60.6318 102.454 60.4419C102.478 60.2785 102.505 60.0677 102.505 59.9181L101.505 59.918L100.505 59.9179C100.505 59.8952 100.506 59.9031 100.5 59.9631C100.494 60.0131 100.486 60.0792 100.475 60.1581C100.452 60.3157 100.42 60.506 100.385 60.6872L101.367 60.877ZM101.505 59.918H102.505V59.6748H101.505H100.505V59.918H101.505ZM101.505 59.6748V60.6748H104.908V59.6748V58.6748H101.505V59.6748ZM104.908 59.6748L103.913 59.5778L103.883 59.8883L104.878 59.9854L105.873 60.0824L105.903 59.7718L104.908 59.6748ZM83.5156 11.7842L83.2341 12.7437L83.7068 12.8824L83.9883 11.9229L84.2698 10.9633L83.7971 10.8246L83.5156 11.7842ZM83.9883 11.9229L83.7068 12.8824C83.9455 12.9524 84.421 13.1072 84.7506 13.2234L85.083 12.2803L85.4155 11.3372C85.0611 11.2122 84.5507 11.0457 84.2697 10.9633L83.9883 11.9229ZM85.083 12.2803L84.7505 13.2234C85.0796 13.3394 85.6761 13.5626 86.0672 13.7166L86.4336 12.7861L86.8 11.8557C86.3897 11.6941 85.7704 11.4623 85.4155 11.3372L85.083 12.2803ZM86.4336 12.7861L86.0672 13.7166C86.4485 13.8667 87.1368 14.1614 87.5849 14.3658L88 13.4561L88.4151 12.5463C87.9418 12.3303 87.2205 12.0212 86.8 11.8557L86.4336 12.7861ZM88 13.4561L87.584 14.3654C88.0279 14.5685 88.6471 14.8785 88.9448 15.0444L89.4316 14.1709L89.9185 13.2974C89.5625 13.099 88.8937 12.7652 88.416 12.5467L88 13.4561ZM89.4316 14.1709L88.9448 15.0444C89.2641 15.2224 89.8165 15.5392 90.1678 15.7453L90.6738 14.8828L91.1799 14.0203C90.8183 13.8082 90.2529 13.4838 89.9185 13.2974L89.4316 14.1709ZM90.6738 14.8828L90.1678 15.7453C90.5093 15.9457 91.0401 16.2771 91.3351 16.4737L91.8896 15.6416L92.4442 14.8095C92.1148 14.5899 91.5514 14.2383 91.1799 14.0203L90.6738 14.8828ZM91.8896 15.6416L91.335 16.4737C91.6355 16.674 92.1083 17.0046 92.3759 17.2021L92.9697 16.3975L93.5635 15.5928C93.2673 15.3743 92.7682 15.0254 92.4443 14.8095L91.8896 15.6416ZM92.9697 16.3975L92.3769 17.2028C92.6467 17.4014 93.1103 17.7585 93.3977 17.989L94.0234 17.209L94.6492 16.429C94.3423 16.1828 93.8567 15.8086 93.5625 15.5921L92.9697 16.3975ZM94.0234 17.209L93.3976 17.989C93.6822 18.2173 94.1696 18.6271 94.4734 18.8922L95.1309 18.1387L95.7883 17.3852C95.4677 17.1054 94.9589 16.6775 94.6492 16.429L94.0234 17.209ZM95.1309 18.1387L94.4734 18.8921C94.7556 19.1384 95.4001 19.7615 95.8957 20.2707L96.6123 19.5732L97.3289 18.8758C96.8191 18.3519 96.1309 17.6841 95.7884 17.3852L95.1309 18.1387ZM96.6123 19.5732L95.8953 20.2703C96.3887 20.7777 97.0506 21.4986 97.3575 21.8615L98.1211 21.2158L98.8847 20.5701C98.5379 20.16 97.8418 19.4033 97.3293 18.8761L96.6123 19.5732ZM98.1211 21.2158L97.3575 21.8615C97.6719 22.2334 98.1315 22.8126 98.37 23.1349L99.1738 22.54L99.9776 21.9451C99.7105 21.5842 99.2237 20.971 98.8847 20.5701L98.1211 21.2158ZM99.1738 22.54L98.37 23.1349C98.6126 23.4627 99.022 24.0456 99.272 24.4198L100.104 23.8643L100.935 23.3087C100.669 22.9099 100.241 22.3006 99.9776 21.9452L99.1738 22.54ZM100.104 23.8643L99.2726 24.4206C99.5229 24.7944 99.8761 25.3521 100.053 25.6477L100.911 25.1348L101.77 24.6218C101.573 24.2936 101.202 23.7069 100.934 23.3079L100.104 23.8643ZM100.911 25.1348L100.052 25.6466C100.229 25.9429 100.549 26.5125 100.758 26.9027L101.64 26.4316L102.522 25.9606C102.301 25.5475 101.965 24.9502 101.77 24.6229L100.911 25.1348ZM101.64 26.4316L100.758 26.9027C100.964 27.2885 101.277 27.916 101.447 28.2842L102.354 27.8643L103.262 27.4443C103.075 27.0395 102.745 26.3778 102.522 25.9606L101.64 26.4316ZM102.354 27.8643L101.447 28.2842C101.617 28.6528 101.892 29.2928 102.05 29.6923L102.979 29.3242L103.909 28.9561C103.738 28.5232 103.449 27.8487 103.262 27.4443L102.354 27.8643ZM102.979 29.3242L102.05 29.6933C102.207 30.0893 102.483 30.8499 102.658 31.3715L103.606 31.0537L104.555 30.7359C104.371 30.1874 104.082 29.3917 103.909 28.9551L102.979 29.3242ZM103.606 31.0537L102.658 31.3715C102.829 31.8801 103.09 32.7781 103.23 33.3473L104.201 33.1074L105.172 32.8675C105.019 32.2476 104.743 31.2975 104.555 30.7359L103.606 31.0537ZM104.201 33.1074L103.231 33.3482C103.375 33.9297 103.551 34.7346 103.621 35.1229L104.605 34.9453L105.59 34.7677C105.509 34.3236 105.322 33.4742 105.172 32.8667L104.201 33.1074ZM104.605 34.9453L103.621 35.1229C103.694 35.528 103.789 36.1216 103.831 36.4311L104.822 36.2969L105.813 36.1626C105.767 35.8181 105.667 35.195 105.59 34.7678L104.605 34.9453ZM104.822 36.2969L103.832 36.4327C103.875 36.7466 103.935 37.2685 103.965 37.5817L104.961 37.4863L105.956 37.3909C105.924 37.0502 105.86 36.5012 105.813 36.161L104.822 36.2969ZM104.961 37.4863L103.966 37.5833C103.995 37.8857 104.043 38.6197 104.071 39.2092L105.07 39.1611L106.069 39.113C106.04 38.514 105.99 37.7412 105.956 37.3894L104.961 37.4863ZM105.07 39.1611L104.072 39.2101C104.099 39.7771 104.124 41.0257 104.125 43.7299L105.125 43.7295L106.125 43.7291C106.124 41.0291 106.1 39.7344 106.069 39.1121L105.07 39.1611ZM105.125 43.7295V44.7295H107.609V43.7295V42.7295H105.125V43.7295ZM107.609 43.7295H106.609V56.3232H107.609H108.609V43.7295H107.609ZM107.609 56.3232V55.3232H43V56.3232V57.3232H107.609V56.3232ZM43 56.3232H44V43.7295H43H42V56.3232H43ZM43 43.7295V44.7295H43.6348V43.7295V42.7295H43V43.7295ZM43.6348 43.7295L43.6363 44.7295C44.0153 44.7289 44.598 44.7097 45.5517 44.6462L45.4854 43.6484L45.419 42.6506C44.4877 42.7126 43.9522 42.729 43.6332 42.7295L43.6348 43.7295ZM45.4854 43.6484L46.4854 43.649L46.4863 41.9459L45.4863 41.9453L44.4863 41.9447L44.4854 43.6479L45.4854 43.6484ZM45.4863 41.9453H46.4863C46.4863 41.0166 46.5098 39.7818 46.5379 39.2101L45.5391 39.1611L44.5403 39.1121C44.51 39.7297 44.4863 41.0006 44.4863 41.9453H45.4863ZM45.5391 39.1611L46.5379 39.2092C46.5663 38.6197 46.6143 37.8857 46.6437 37.5833L45.6484 37.4863L44.6531 37.3894C44.6189 37.7413 44.5691 38.514 44.5402 39.113L45.5391 39.1611ZM45.6484 37.4863L46.6439 37.5817C46.6739 37.2685 46.7348 36.7466 46.7778 36.4327L45.7871 36.2969L44.7964 36.161C44.7497 36.5012 44.6856 37.0502 44.653 37.391L45.6484 37.4863ZM45.7871 36.2969L46.7781 36.4311C46.82 36.1216 46.9149 35.528 46.988 35.1229L46.0039 34.9453L45.0198 34.7678C44.9427 35.195 44.8428 35.8181 44.7962 36.1626L45.7871 36.2969ZM46.0039 34.9453L46.988 35.1229C47.0579 34.7353 47.2353 33.9308 47.3798 33.3482L46.4092 33.1074L45.4386 32.8667C45.2882 33.4731 45.1001 34.3228 45.0198 34.7678L46.0039 34.9453ZM46.4092 33.1074L47.38 33.3474C47.5209 32.7773 47.7809 31.8793 47.9511 31.3715L47.0029 31.0537L46.0548 30.7359C45.8663 31.2982 45.5914 32.2484 45.4384 32.8675L46.4092 33.1074ZM47.0029 31.0537L47.9511 31.3715C48.1259 30.8499 48.402 30.0893 48.5593 29.6933L47.6299 29.3242L46.7005 28.9551C46.5271 29.3917 46.2386 30.1874 46.0548 30.7359L47.0029 31.0537ZM47.6299 29.3242L48.5597 29.6923C48.7178 29.2928 48.9919 28.6528 49.1625 28.2842L48.2549 27.8643L47.3473 27.4444C47.1603 27.8487 46.8715 28.5232 46.7001 28.9561L47.6299 29.3242ZM48.2549 27.8643L49.1624 28.2842C49.3328 27.916 49.6458 27.2885 49.8518 26.9027L48.9697 26.4316L48.0876 25.9606C47.8648 26.3778 47.5346 27.0395 47.3473 27.4443L48.2549 27.8643ZM48.9697 26.4316L49.8518 26.9027C50.0602 26.5125 50.3808 25.9429 50.5573 25.6466L49.6982 25.1348L48.8392 24.6229C48.6441 24.9502 48.3082 25.5475 48.0876 25.9606L48.9697 26.4316ZM49.6982 25.1348L50.5567 25.6477C50.7333 25.3521 51.0865 24.7945 51.3368 24.4206L50.5059 23.8643L49.6749 23.3079C49.4078 23.7069 49.036 24.2936 48.8398 24.6218L49.6982 25.1348ZM50.5059 23.8643L51.3373 24.4198C51.5874 24.0456 51.9968 23.4627 52.2394 23.1349L51.4355 22.54L50.6317 21.9452C50.3687 22.3006 49.9408 22.9099 49.6744 23.3087L50.5059 23.8643ZM51.4355 22.54L52.2393 23.1349C52.4775 22.8132 52.9378 22.2341 53.2528 21.8615L52.4893 21.2158L51.7257 20.5701C51.3872 20.9704 50.8994 21.5836 50.6317 21.9451L51.4355 22.54ZM52.4893 21.2158L53.2528 21.8616C53.5601 21.4982 54.2214 20.7771 54.7141 20.2703L53.9971 19.5732L53.2801 18.8761C52.7672 19.4037 52.0722 20.1603 51.7257 20.5701L52.4893 21.2158ZM53.9971 19.5732L54.7137 20.2707C55.2092 19.7616 55.8537 19.1385 56.136 18.8921L55.4785 18.1387L54.821 17.3852C54.4784 17.6842 53.7903 18.3519 53.2805 18.8758L53.9971 19.5732ZM55.4785 18.1387L56.1359 18.8922C56.4397 18.6272 56.9272 18.2173 57.2117 17.989L56.5859 17.209L55.9601 16.429C55.6504 16.6775 55.1416 17.1055 54.8211 17.3852L55.4785 18.1387ZM56.5859 17.209L57.2117 17.989C57.4991 17.7585 57.9626 17.4014 58.2324 17.2028L57.6396 16.3975L57.0469 15.5921C56.7527 15.8086 56.2671 16.1828 55.9602 16.429L56.5859 17.209ZM57.6396 16.3975L58.2334 17.2021C58.5006 17.0049 58.9741 16.6745 59.2753 16.4737L58.7207 15.6416L58.1661 14.8095C57.8428 15.0249 57.3427 15.3738 57.0459 15.5928L57.6396 16.3975ZM58.7207 15.6416L59.2753 16.4737C59.5708 16.2768 60.1008 15.9453 60.4416 15.7453L59.9355 14.8828L59.4295 14.0203C59.0575 14.2386 58.495 14.5903 58.1661 14.8095L58.7207 15.6416ZM59.9355 14.8828L60.4416 15.7453C60.7928 15.5393 61.3452 15.2224 61.6646 15.0444L61.1777 14.1709L60.6909 13.2974C60.3564 13.4838 59.791 13.8082 59.4295 14.0203L59.9355 14.8828ZM61.1777 14.1709L61.6646 15.0444C61.9622 14.8785 62.5815 14.5685 63.0254 14.3654L62.6094 13.4561L62.1933 12.5467C61.7157 12.7652 61.0468 13.099 60.6909 13.2974L61.1777 14.1709ZM62.6094 13.4561L63.0245 14.3658C63.4723 14.1615 64.1615 13.8669 64.5431 13.7166L64.1768 12.7861L63.8104 11.8557C63.3903 12.0211 62.6681 12.3301 62.1942 12.5463L62.6094 13.4561ZM64.1768 12.7861L64.5431 13.7166C64.9341 13.5627 65.5301 13.3401 65.8585 13.2248L65.5273 12.2812L65.1962 11.3377C64.8409 11.4624 64.2211 11.6939 63.8104 11.8557L64.1768 12.7861ZM65.5273 12.2812L65.8584 13.2248C66.1877 13.1093 66.6751 12.9459 67.4211 12.7105L67.1201 11.7568L66.8191 10.8032C66.0592 11.0431 65.5508 11.2133 65.1962 11.3377L65.5273 12.2812ZM67.1201 11.7568L68.1201 11.7646L68.1347 9.88573L67.1348 9.87793L66.1348 9.87013L66.1201 11.749L67.1201 11.7568ZM67.1348 9.87793L68.1347 9.88573L68.1494 8.0078L67.1494 8L66.1494 7.9922L66.1348 9.87013L67.1348 9.87793ZM67.1494 8V9H83.5156V8V7H67.1494V8ZM83.5156 8H82.5156V11.7842H83.5156H84.5156V8H83.5156ZM70.4971 11.3516H69.4971V24.5938H70.4971H71.4971V11.3516H70.4971ZM70.4971 24.5938V23.5938H67.1475V24.5938V25.5938H70.4971V24.5938ZM67.1475 24.5938L68.1475 24.5937C68.1475 20.9912 68.1459 18.6664 68.1435 17.2419C68.1422 16.5299 68.1407 16.0418 68.1391 15.7313C68.1383 15.5764 68.1374 15.4635 68.1365 15.3885C68.136 15.3518 68.1355 15.3199 68.1348 15.2953C68.1345 15.2846 68.134 15.2666 68.1329 15.2476C68.1326 15.2411 68.1312 15.2165 68.1278 15.1863C68.1267 15.1766 68.1219 15.1323 68.1094 15.0771C68.1048 15.0567 68.0876 14.9804 68.0471 14.8895C68.0226 14.8386 67.9458 14.7132 67.8895 14.642C67.7802 14.5339 67.439 14.3446 67.2051 14.2994L67.1338 15.2969L67.0625 16.2943C66.8286 16.2492 66.4874 16.0599 66.3781 15.9518C66.3219 15.8807 66.2451 15.7553 66.2207 15.7045C66.1802 15.6137 66.1631 15.5376 66.1585 15.5175C66.1462 15.4628 66.1414 15.4192 66.1404 15.4106C66.1373 15.3824 66.1362 15.361 66.136 15.3587C66.1354 15.3481 66.1354 15.3427 66.1356 15.3491C66.1358 15.3587 66.1362 15.3789 66.1366 15.4135C66.1375 15.4811 66.1383 15.588 66.1391 15.7419C66.1408 16.0487 66.1422 16.5339 66.1435 17.2454C66.1459 18.6681 66.1475 20.9914 66.1475 24.5938L67.1475 24.5938ZM67.1338 15.2969L66.9905 14.3072C66.9378 14.3148 66.8965 14.3254 66.8918 14.3265C66.8778 14.33 66.8664 14.3331 66.8601 14.3349C66.847 14.3385 66.8355 14.342 66.8282 14.3442C66.8126 14.3489 66.7953 14.3544 66.7789 14.3596C66.745 14.3705 66.7003 14.385 66.6491 14.4019C66.5459 14.4359 66.4082 14.4819 66.2596 14.5323L66.5801 15.4795L66.9006 16.4267C67.0456 16.3777 67.1782 16.3333 67.2753 16.3014C67.3241 16.2852 67.362 16.2729 67.3873 16.2648C67.4004 16.2606 67.4068 16.2587 67.4084 16.2582C67.4097 16.2578 67.4051 16.2592 67.3972 16.2614C67.3935 16.2624 67.3843 16.265 67.372 16.268C67.369 16.2688 67.329 16.279 67.2771 16.2866L67.1338 15.2969ZM66.5801 15.4795L66.2595 14.5323C65.9417 14.6398 65.3895 14.8456 65.02 14.9935L65.3916 15.9219L65.7632 16.8503C66.1065 16.7129 66.624 16.5203 66.9006 16.4267L66.5801 15.4795ZM65.3916 15.9219L65.02 14.9935C64.837 15.0667 64.6647 15.1379 64.533 15.1945C64.4682 15.2224 64.4071 15.2493 64.3574 15.2725C64.3337 15.2835 64.3032 15.298 64.2727 15.314C64.2583 15.3215 64.2331 15.335 64.2041 15.3526C64.2037 15.3529 64.0987 15.4126 63.998 15.5167L64.7168 16.2119L65.4356 16.9071C65.3742 16.9707 65.3183 17.0109 65.2999 17.0241C65.2746 17.0421 65.2538 17.055 65.2426 17.0618C65.2202 17.0755 65.2036 17.0841 65.1999 17.0861C65.1907 17.0909 65.1895 17.0912 65.2022 17.0853C65.2252 17.0745 65.2652 17.0567 65.3225 17.0321C65.4351 16.9837 65.5914 16.919 65.7632 16.8503L65.3916 15.9219ZM64.7168 16.2119L63.9745 15.5418C64.0646 15.442 64.1524 15.3874 64.1818 15.3696C64.2223 15.3451 64.2557 15.3294 64.2769 15.3203C64.3177 15.3027 64.36 15.2889 64.4076 15.2792L64.6084 16.2588L64.8092 17.2384C64.9017 17.2195 64.9906 17.1907 65.0706 17.1561C65.1071 17.1403 65.2971 17.0614 65.4591 16.882L64.7168 16.2119ZM64.6084 16.2588L64.4149 15.2777C64.3392 15.2926 64.2795 15.3138 64.2673 15.318C64.2431 15.3264 64.2216 15.3348 64.2061 15.3409C64.1744 15.3534 64.1409 15.3677 64.1099 15.3812C64.0465 15.4088 63.9672 15.4449 63.8796 15.4855C63.703 15.5675 63.4748 15.6764 63.2363 15.7932L63.6758 16.6914L64.1153 17.5896C64.3446 17.4774 64.56 17.3746 64.7214 17.2997C64.8028 17.2619 64.866 17.2333 64.9087 17.2148C64.919 17.2103 64.9271 17.2068 64.9334 17.2042C64.9364 17.2029 64.9388 17.2019 64.9405 17.2012C64.9422 17.2005 64.943 17.2002 64.9429 17.2002C64.9428 17.2002 64.9413 17.2008 64.9386 17.2019C64.9361 17.2028 64.9309 17.2047 64.9238 17.2072C64.9231 17.2075 64.8719 17.2261 64.8019 17.2399L64.6084 16.2588ZM63.6758 16.6914L63.2375 15.7926C62.9945 15.9111 62.7693 16.0259 62.6006 16.1166C62.5182 16.1609 62.4388 16.2051 62.3745 16.244C62.3455 16.2615 62.3 16.2897 62.2538 16.3232C62.2345 16.3373 62.1854 16.3735 62.1318 16.4257C62.1067 16.4502 62.052 16.5054 61.9974 16.5863C61.9645 16.635 61.8101 16.8631 61.8264 17.1971L62.8252 17.1484L63.824 17.0998C63.8328 17.2802 63.791 17.4233 63.7574 17.5098C63.723 17.5983 63.6825 17.6646 63.655 17.7053C63.6018 17.7842 63.5493 17.8369 63.5271 17.8586C63.4791 17.9053 63.4386 17.9346 63.4306 17.9404C63.407 17.9576 63.3948 17.9642 63.4089 17.9557C63.4308 17.9425 63.4761 17.9167 63.5479 17.8781C63.6875 17.803 63.8882 17.7004 64.1141 17.5902L63.6758 16.6914ZM62.8252 17.1484L61.8255 17.1724C61.8186 16.8855 61.9437 16.5692 62.2267 16.364C62.4996 16.1662 62.8102 16.149 63.0444 16.2119L62.7852 17.1777L62.5259 18.1435C62.7823 18.2124 63.1132 18.1916 63.4006 17.9833C63.6983 17.7675 63.8323 17.4335 63.8249 17.1244L62.8252 17.1484ZM62.7852 17.1777L63.0066 16.2026C62.768 16.1484 62.5675 16.1998 62.5638 16.2005C62.5068 16.2126 62.4598 16.2273 62.4329 16.2361C62.3758 16.2549 62.3213 16.2769 62.2791 16.2948C62.1903 16.3324 62.0889 16.3806 61.9904 16.4313L62.4482 17.3203L62.9061 18.2093C62.9704 18.1762 63.0258 18.1505 63.059 18.1364C63.0777 18.1285 63.0755 18.1302 63.0583 18.1359C63.0514 18.1381 63.0212 18.148 62.9775 18.1573C62.9557 18.1619 62.9146 18.1698 62.8615 18.1742C62.8342 18.1764 62.7962 18.1784 62.7507 18.1769C62.7069 18.1755 62.6414 18.1706 62.5637 18.1529L62.7852 17.1777ZM62.4482 17.3203L61.9926 16.4301C61.7932 16.5322 61.3525 16.7885 61.0094 16.9973L61.5293 17.8516L62.0492 18.7058C62.39 18.4984 62.7759 18.276 62.9039 18.2105L62.4482 17.3203ZM61.5293 17.8516L61.0084 16.9979C60.6557 17.2131 60.1154 17.5579 59.7975 17.771L60.3545 18.6016L60.9114 19.4321C61.203 19.2366 61.7191 18.9072 62.0502 18.7052L61.5293 17.8516ZM60.3545 18.6016L59.7985 17.7703C59.6334 17.8808 59.4771 17.992 59.3557 18.0852C59.2972 18.1302 59.2335 18.1811 59.1774 18.2314C59.1518 18.2544 59.1083 18.2946 59.0636 18.3452C59.0423 18.3693 59.0022 18.4163 58.9613 18.4804C58.9407 18.5127 58.8222 18.6921 58.8033 18.9548L59.8008 19.0264L60.7982 19.0979C60.7877 19.2445 60.747 19.3556 60.7217 19.4148C60.6944 19.4789 60.6657 19.5275 60.6468 19.5571C60.6099 19.6148 60.5757 19.6544 60.562 19.6699C60.5451 19.6889 60.5319 19.7021 60.5258 19.7081C60.519 19.7147 60.5146 19.7187 60.5138 19.7194C60.5124 19.7207 60.5165 19.7169 60.5283 19.7073C60.5395 19.6982 60.5546 19.6863 60.5737 19.6716C60.6528 19.6109 60.7723 19.5252 60.9104 19.4328L60.3545 18.6016ZM59.8008 19.0264H58.8008C58.8008 18.7914 58.8845 18.6125 58.9539 18.5054C59.024 18.3972 59.1024 18.3246 59.1608 18.2795C59.2758 18.1905 59.3979 18.1412 59.5118 18.1187L59.7061 19.0996L59.9003 20.0806C60.066 20.0477 60.2355 19.9767 60.3849 19.8611C60.4911 19.7789 60.8008 19.5051 60.8008 19.0264H59.8008ZM59.7061 19.0996L59.4988 18.1213C59.336 18.1558 59.2101 18.2277 59.2028 18.2316C59.1602 18.2544 59.1207 18.2783 59.0899 18.2976C59.0264 18.3373 58.9549 18.3857 58.8834 18.4358C58.7382 18.5376 58.5596 18.67 58.3792 18.8103L58.9932 19.5996L59.6072 20.3889C59.7663 20.2651 59.9181 20.153 60.0314 20.0736C60.0892 20.0331 60.129 20.0067 60.151 19.9929C60.1629 19.9854 60.1597 19.9879 60.146 19.9952C60.1392 19.9989 60.1206 20.0087 60.0939 20.0203C60.077 20.0278 60.0087 20.0577 59.9133 20.0779L59.7061 19.0996ZM58.9932 19.5996L58.3784 18.8109C58.0163 19.0931 57.3914 19.621 56.9757 19.994L57.6436 20.7383L58.3114 21.4826C58.7015 21.1325 59.2906 20.6357 59.608 20.3883L58.9932 19.5996ZM57.6436 20.7383L56.9757 19.994C56.557 20.3697 55.944 20.9588 55.6008 21.3153L56.3213 22.0088L57.0418 22.7023C57.3469 22.3853 57.9242 21.8301 58.3114 21.4826L57.6436 20.7383ZM56.3213 22.0088L55.6014 21.3147C55.2765 21.6517 54.9147 22.0329 54.7964 22.1618L55.5332 22.8379L56.27 23.514C56.37 23.405 56.7167 23.0394 57.0412 22.7029L56.3213 22.0088ZM55.5332 22.8379L54.798 22.16C54.6703 22.2986 54.3851 22.6305 54.1607 22.8996L54.9287 23.54L55.6967 24.1805C55.9184 23.9146 56.1767 23.6152 56.2684 23.5158L55.5332 22.8379ZM54.9287 23.54L54.1599 22.9005C53.9243 23.1838 53.5509 23.6608 53.3204 23.9709L54.123 24.5674L54.9257 25.1639C55.1371 24.8794 55.488 24.4314 55.6975 24.1795L54.9287 23.54ZM54.123 24.5674L53.3197 23.9718C53.0854 24.2879 52.6615 24.8992 52.37 25.34L53.2041 25.8916L54.0382 26.4432C54.3171 26.0215 54.7199 25.4415 54.9264 25.1629L54.123 24.5674ZM53.2041 25.8916L52.3695 25.3408C52.0783 25.7819 51.6858 26.4092 51.4928 26.7458L52.3604 27.2432L53.2279 27.7405C53.3925 27.4534 53.7605 26.864 54.0387 26.4425L53.2041 25.8916ZM52.3604 27.2432L51.4928 26.7458C51.3019 27.0788 50.9734 27.6987 50.7559 28.1341L51.6504 28.5811L52.5449 29.0281C52.7508 28.6161 53.0611 28.0315 53.2279 27.7405L52.3604 27.2432ZM51.6504 28.5811L50.7554 28.135C50.5368 28.5735 50.217 29.2601 50.0401 29.6752L50.96 30.0674L51.8798 30.4596C52.0389 30.0866 52.3415 29.4362 52.5454 29.0271L51.6504 28.5811ZM50.96 30.0674L50.0396 29.6763C49.8632 30.0914 49.5901 30.7982 49.4273 31.2633L50.3711 31.5938L51.3149 31.9242C51.4643 31.4977 51.7218 30.8314 51.8803 30.4585L50.96 30.0674ZM50.3711 31.5938L49.4273 31.2633C49.265 31.7269 49.0346 32.4514 48.9099 32.8864L49.8711 33.1621L50.8323 33.4378C50.9463 33.0404 51.165 32.3524 51.3149 31.9242L50.3711 31.5938ZM49.8711 33.1621L48.9095 32.8875C48.795 33.2886 48.6672 33.7533 48.6361 33.8996L49.6143 34.1074L50.5924 34.3152C50.5919 34.3179 50.5931 34.312 50.5978 34.293C50.602 34.2759 50.6077 34.2534 50.615 34.2254C50.6295 34.1694 50.6487 34.0975 50.6714 34.014C50.7167 33.8473 50.7743 33.6412 50.8327 33.4367L49.8711 33.1621ZM49.6143 34.1074L48.6361 33.8997C48.6122 34.0122 48.583 34.163 48.5698 34.2439L49.5566 34.4053L50.5435 34.5667C50.5498 34.5286 50.572 34.4113 50.5925 34.3151L49.6143 34.1074ZM49.5566 34.4053L48.5699 34.243C48.5712 34.235 48.5705 34.2403 48.5648 34.2675C48.5599 34.2906 48.5533 34.3208 48.5453 34.3565C48.5291 34.4279 48.5088 34.514 48.4885 34.5959L49.459 34.8369L50.4295 35.0779C50.4726 34.9044 50.5261 34.673 50.5434 34.5675L49.5566 34.4053ZM49.459 34.8369L48.4878 34.5987C48.4415 34.7872 48.384 35.0548 48.3619 35.2069L49.3516 35.3506L50.3412 35.4943C50.3494 35.4375 50.389 35.2431 50.4302 35.0752L49.459 34.8369ZM49.3516 35.3506L48.3619 35.2071C48.3524 35.2724 48.3227 35.4221 48.2993 35.5177L49.2705 35.7559L50.2417 35.994C50.2766 35.8518 50.3204 35.6373 50.3412 35.4941L49.3516 35.3506ZM49.2705 35.7559L48.2993 35.5176C48.2535 35.7043 48.1737 36.2568 48.1156 36.7096L49.1074 36.8369L50.0993 36.9642C50.129 36.7328 50.1615 36.4995 50.1898 36.3115C50.204 36.2173 50.2167 36.1373 50.2271 36.076C50.2392 36.005 50.244 35.9848 50.2417 35.9941L49.2705 35.7559ZM49.1074 36.8369L48.1154 36.7107C48.0539 37.1945 47.9792 37.8636 47.9476 38.2048L48.9434 38.2969L49.9391 38.389C49.968 38.0762 50.04 37.4306 50.0994 36.9631L49.1074 36.8369ZM48.9434 38.2969L47.9476 38.2048C47.9131 38.5781 47.8697 39.9646 47.8478 41.2664L48.8477 41.2832L49.8475 41.3C49.8699 39.9709 49.9131 38.6703 49.9391 38.3889L48.9434 38.2969ZM48.8477 41.2832L47.8478 41.2665L47.8078 43.6581L48.8076 43.6748L49.8075 43.6915L49.8475 41.2999L48.8477 41.2832ZM48.8076 43.6748V44.6748H51.6973V43.6748V42.6748H48.8076V43.6748ZM51.6973 43.6748H50.6973V47.0801H51.6973H52.6973V43.6748H51.6973ZM51.6973 47.0801V46.0801H46.3496V47.0801V48.0801H51.6973V47.0801ZM46.3496 47.0801H45.3496V53.0264H46.3496H47.3496V47.0801H46.3496ZM46.3496 53.0264V54.0264H104.261V53.0264V52.0264H46.3496V53.0264ZM104.261 53.0264H105.261V47.0801H104.261H103.261V53.0264H104.261ZM104.261 47.0801V46.0801H98.9121V47.0801V48.0801H104.261V47.0801ZM98.9121 47.0801H99.9121V43.7285H98.9121H97.9121V47.0801H98.9121ZM98.9121 43.7285L98.9214 44.7285L101.757 44.7021L101.748 43.7021L101.739 42.7022L98.9028 42.7286L98.9121 43.7285ZM101.748 43.7021L102.748 43.7159C102.773 41.9013 102.755 40.6324 102.724 39.722L101.725 39.7559L100.725 39.7898C100.755 40.6631 100.773 41.8998 100.748 43.6884L101.748 43.7021ZM101.725 39.7559L102.724 39.7213C102.693 38.8288 102.632 37.7476 102.582 37.3178L101.589 37.4316L100.595 37.5455C100.635 37.8886 100.694 38.8992 100.725 39.7904L101.725 39.7559ZM101.589 37.4316L102.582 37.3177C102.536 36.9116 102.436 36.2128 102.358 35.7519L101.372 35.918L100.386 36.084C100.459 36.5149 100.553 37.1787 100.595 37.5455L101.589 37.4316ZM101.372 35.918L102.358 35.7507C102.28 35.2894 102.151 34.6548 102.069 34.3242L101.099 34.5674L100.129 34.8106C100.195 35.0746 100.313 35.655 100.386 36.0852L101.372 35.918ZM101.099 34.5674L102.069 34.3241C102.033 34.181 101.998 34.0359 101.97 33.9187C101.957 33.86 101.945 33.8099 101.937 33.7715C101.927 33.7272 101.924 33.7135 101.925 33.7186L100.94 33.8916L99.9555 34.0646C99.976 34.1815 100.056 34.5228 100.129 34.8106L101.099 34.5674ZM100.94 33.8916L101.926 33.7203C101.9 33.5742 101.771 33.1143 101.661 32.7438L100.702 33.0264L99.7429 33.3089C99.8006 33.5048 99.8553 33.6967 99.8967 33.847C99.9174 33.9225 99.9341 33.9848 99.9459 34.0307C99.9616 34.0917 99.96 34.0905 99.9552 34.0629L100.94 33.8916ZM100.702 33.0264L101.661 32.7438C101.538 32.3244 101.316 31.6394 101.164 31.2082L100.221 31.54L99.2774 31.8718C99.4185 32.273 99.6298 32.9251 99.7429 33.3089L100.702 33.0264ZM100.221 31.54L101.164 31.2071C101.009 30.7694 100.726 30.0449 100.53 29.5823L99.6094 29.9727L98.6887 30.363C98.8707 30.7923 99.1384 31.4783 99.2777 31.8729L100.221 31.54ZM99.6094 29.9727L100.53 29.5814C100.332 29.1165 100.001 28.4026 99.7864 27.9794L98.8945 28.4316L98.0027 28.8839C98.1953 29.2639 98.5075 29.9369 98.6891 30.364L99.6094 29.9727ZM98.8945 28.4316L99.7864 27.9793C99.5704 27.5535 99.1695 26.8326 98.8877 26.3611L98.0293 26.874L97.1709 27.3869C97.4335 27.8264 97.8112 28.5065 98.0027 28.884L98.8945 28.4316ZM98.0293 26.874L98.8877 26.3611C98.7475 26.1265 98.6067 25.898 98.4916 25.7173C98.4343 25.6274 98.3808 25.5452 98.3354 25.4783C98.3079 25.4378 98.237 25.3321 98.1615 25.2504L97.4268 25.9287L96.692 26.6071C96.6574 26.5696 96.6394 26.543 96.6507 26.5585C96.6551 26.5645 96.6646 26.5779 96.6801 26.6008C96.7107 26.6459 96.753 26.7106 96.8049 26.7921C96.9081 26.954 97.0388 27.166 97.1709 27.3869L98.0293 26.874ZM97.4268 25.9287L98.1584 25.247C98.1479 25.2358 98.1506 25.2371 98.164 25.2555C98.1668 25.2594 98.196 25.2989 98.2273 25.3608C98.2399 25.3856 98.2811 25.468 98.3072 25.584C98.3204 25.6427 98.3403 25.7551 98.3265 25.8968C98.3122 26.0436 98.2551 26.2742 98.0634 26.4798L97.332 25.7979L96.6007 25.1159C96.2301 25.5133 96.3468 25.9823 96.3558 26.0224C96.383 26.1434 96.4268 26.2322 96.4432 26.2647C96.4824 26.342 96.5246 26.4017 96.5446 26.4293C96.5923 26.4951 96.6462 26.5579 96.6951 26.6104L97.4268 25.9287ZM97.332 25.7979L98.1353 26.3935C98.3482 26.1063 98.3342 25.8105 98.3311 25.7481C98.3261 25.6452 98.3062 25.5661 98.297 25.5323C98.2772 25.4592 98.2531 25.4036 98.2448 25.3848C98.2243 25.3379 98.2031 25.2985 98.1927 25.2794C98.1681 25.2344 98.1389 25.1854 98.1118 25.1412C98.0552 25.0489 97.9799 24.9318 97.8986 24.8098L97.0664 25.3643L96.2342 25.9187C96.3059 26.0263 96.3668 26.1214 96.4065 26.1862C96.4162 26.202 96.4238 26.2147 96.4295 26.2243C96.4355 26.2346 96.4377 26.2386 96.4372 26.2377C96.4368 26.2371 96.4347 26.2331 96.4314 26.2266C96.4285 26.221 96.4215 26.2069 96.4129 26.1872C96.4075 26.175 96.3854 26.1248 96.3667 26.0557C96.3581 26.0238 96.3384 25.9464 96.3335 25.8448C96.3309 25.7924 96.3309 25.7086 96.3503 25.6081C96.3695 25.5088 96.4146 25.3561 96.5288 25.2022L97.332 25.7979ZM97.0664 25.3643L97.8977 24.8084C97.73 24.5577 97.4325 24.145 97.2264 23.8769L96.4336 24.4863L95.6408 25.0958C95.8236 25.3336 96.095 25.7105 96.2351 25.9201L97.0664 25.3643ZM96.4336 24.4863L97.2264 23.8768C97.0211 23.6099 96.6098 23.1004 96.309 22.7387L95.54 23.3779L94.7711 24.0172C95.0635 24.3689 95.4571 24.8569 95.6408 25.0958L96.4336 24.4863ZM95.54 23.3779L96.309 22.7386C95.9905 22.3555 95.3748 21.6819 94.93 21.2268L94.2148 21.9258L93.4997 22.6248C93.9191 23.0539 94.4963 23.6868 94.7711 24.0172L95.54 23.3779ZM94.2148 21.9258L94.93 21.2268C94.4879 20.7745 93.8707 20.1816 93.5458 19.8998L92.8906 20.6553L92.2354 21.4107C92.5026 21.6425 93.0774 22.1927 93.4997 22.6248L94.2148 21.9258ZM92.8906 20.6553L93.5465 19.9004C93.2397 19.6338 92.7068 19.1904 92.3552 18.9084L91.7295 19.6885L91.1038 20.4686C91.4381 20.7366 91.9505 21.1632 92.2348 21.4101L92.8906 20.6553ZM91.7295 19.6885L92.3544 18.9078C92.1736 18.7631 91.9969 18.6278 91.8554 18.5254C91.7862 18.4754 91.7155 18.4259 91.6523 18.3855C91.6225 18.3665 91.5789 18.3394 91.5298 18.3136C91.5063 18.3012 91.4642 18.2799 91.4113 18.2593C91.3889 18.2506 91.2383 18.1885 91.0381 18.1885V19.1885V20.1885C90.9239 20.1885 90.8357 20.1685 90.7934 20.1576C90.7452 20.1452 90.7076 20.1316 90.6851 20.1228C90.641 20.1056 90.6098 20.0895 90.599 20.0838C90.5755 20.0714 90.5649 20.0641 90.575 20.0705C90.5913 20.081 90.6267 20.105 90.6829 20.1457C90.7921 20.2247 90.9424 20.3394 91.1046 20.4692L91.7295 19.6885ZM91.0381 19.1885L91.0438 18.1885C91.2329 18.1896 91.437 18.2502 91.6125 18.3896C91.7897 18.5304 91.9707 18.7866 91.9707 19.1348H90.9707H89.9707C89.9707 19.921 90.6777 20.1864 91.0324 20.1885L91.0381 19.1885ZM90.9707 19.1348L91.9699 19.0948C91.9599 18.8459 91.8592 18.6721 91.8339 18.6286C91.7945 18.5607 91.7552 18.5114 91.7346 18.4867C91.6921 18.4356 91.6523 18.3976 91.6337 18.3802C91.5917 18.341 91.5484 18.3056 91.5171 18.2807C91.4497 18.2271 91.3641 18.1636 91.2724 18.0976C91.0855 17.9632 90.8349 17.7909 90.5635 17.6113L90.0117 18.4453L89.4599 19.2793C89.7156 19.4484 89.9439 19.6056 90.1044 19.7211C90.1864 19.7801 90.2417 19.8217 90.2718 19.8457C90.2893 19.8596 90.2839 19.8562 90.2678 19.8412C90.2621 19.8359 90.2322 19.808 90.1964 19.7649C90.1792 19.7443 90.1425 19.6985 90.1047 19.6336C90.0853 19.6001 90.0578 19.5484 90.033 19.4816C90.0093 19.4179 89.977 19.3112 89.9715 19.1748L90.9707 19.1348ZM90.0117 18.4453L90.5631 17.6111C90.0234 17.2544 89.2667 16.7849 88.8676 16.5607L88.3779 17.4326L87.8882 18.3045C88.2306 18.4968 88.9439 18.9382 89.4603 19.2796L90.0117 18.4453ZM88.3779 17.4326L88.867 16.5604C88.6733 16.4518 88.4881 16.3521 88.3437 16.2784C88.2733 16.2425 88.2027 16.2076 88.1417 16.1802C88.1137 16.1676 88.0701 16.1485 88.0218 16.1311C88 16.1233 87.9528 16.1069 87.8932 16.0932C87.8639 16.0865 87.8094 16.0752 87.7404 16.07C87.6916 16.0663 87.5304 16.0556 87.3388 16.1211L87.6621 17.0674L87.9854 18.0137C87.8808 18.0494 87.7909 18.0606 87.7336 18.0647C87.6737 18.0689 87.624 18.0669 87.5897 18.0643C87.5232 18.0593 87.4718 18.0485 87.4462 18.0427C87.394 18.0307 87.3563 18.0172 87.3462 18.0136C87.3212 18.0046 87.3093 17.9988 87.3206 18.0038C87.3379 18.0116 87.3752 18.0295 87.4346 18.0598C87.5498 18.1187 87.7114 18.2054 87.8888 18.3049L88.3779 17.4326ZM87.6621 17.0674L87.3424 16.1199C87.7017 15.9986 88.0942 16.0991 88.3518 16.3648C88.5721 16.592 88.6221 16.8572 88.6221 17.0264H87.6221H86.6221C86.6221 17.2253 86.681 17.5147 86.9158 17.7568C87.1879 18.0375 87.6004 18.1436 87.9819 18.0149L87.6621 17.0674ZM87.6221 17.0264L88.622 17.0182C88.6195 16.708 88.464 16.3003 88.0402 16.0958C87.6608 15.9128 87.3061 16.0109 87.1135 16.1089L87.5674 17L88.0213 17.8911C87.8583 17.9741 87.5308 18.0706 87.1712 17.8972C86.7673 17.7023 86.6244 17.3153 86.6221 17.0345L87.6221 17.0264ZM87.5674 17L87.1311 16.1002C87.3128 16.0121 87.5678 15.9648 87.84 16.055C88.131 16.1515 88.3736 16.3887 88.463 16.708L87.5 16.9775L86.537 17.2471C86.6339 17.5933 86.8954 17.849 87.2108 17.9535C87.5074 18.0518 87.7924 18.0023 88.0037 17.8998L87.5674 17ZM87.5 16.9775L88.4524 16.6727C88.3973 16.5004 88.3089 16.3867 88.2753 16.3451C88.2324 16.2922 88.1926 16.254 88.1693 16.2327C88.1225 16.1899 88.0804 16.1594 88.0597 16.1447C88.0146 16.1127 87.9708 16.0862 87.9418 16.0692C87.879 16.0322 87.8038 15.9918 87.7278 15.9524C87.5721 15.8717 87.368 15.7722 87.1503 15.6715L86.7305 16.5791L86.3106 17.4867C86.5083 17.5781 86.6846 17.6644 86.8077 17.7282C86.8711 17.761 86.9098 17.7825 86.9272 17.7927C86.9384 17.7993 86.9262 17.7927 86.9033 17.7764C86.8936 17.7696 86.8603 17.7459 86.8197 17.7088C86.7995 17.6903 86.7622 17.6547 86.7212 17.604C86.7 17.5779 86.6718 17.5404 86.6429 17.4924C86.6149 17.446 86.5772 17.3749 86.5476 17.2824L87.5 16.9775ZM86.7305 16.5791L87.1494 15.6711C86.7323 15.4787 86.1975 15.2382 85.9579 15.1372L85.5693 16.0586L85.1808 16.98C85.3879 17.0674 85.8973 17.296 86.3116 17.4871L86.7305 16.5791ZM85.5693 16.0586L85.9605 15.1383C85.84 15.0871 85.7183 15.0378 85.6169 14.999C85.5668 14.9799 85.516 14.9612 85.47 14.9455C85.4537 14.9399 85.3516 14.9035 85.2428 14.8859L85.083 15.873L84.9232 16.8602C84.8877 16.8544 84.8612 16.848 84.8505 16.8453C84.8376 16.8421 84.8284 16.8394 84.8247 16.8383C84.8174 16.8362 84.8164 16.8357 84.824 16.8383C84.8388 16.8433 84.8651 16.8528 84.9031 16.8674C84.978 16.896 85.0766 16.9358 85.1782 16.9789L85.5693 16.0586ZM85.083 15.873L85.2494 14.887C85.276 14.8915 85.2964 14.8963 85.3086 14.8993C85.3215 14.9026 85.3312 14.9054 85.3372 14.9073C85.3486 14.9108 85.3546 14.9131 85.3552 14.9134C85.3564 14.9138 85.357 14.9141 85.3579 14.9145C85.3584 14.9147 85.3634 14.917 85.3726 14.922L84.8936 15.7998L84.4145 16.6776C84.5234 16.737 84.7189 16.8257 84.9166 16.8591L85.083 15.873ZM84.8936 15.7998L85.3782 14.9251C85.2689 14.8645 85.0847 14.7952 84.984 14.7572C84.8402 14.7028 84.6615 14.638 84.4808 14.5747L84.1504 15.5186L83.82 16.4624C83.9881 16.5212 84.1512 16.5805 84.2769 16.628C84.3402 16.6519 84.3902 16.6714 84.4248 16.6855C84.4424 16.6926 84.452 16.6968 84.4555 16.6983C84.4664 16.7031 84.4434 16.6936 84.4089 16.6745L84.8936 15.7998ZM84.1504 15.5186L84.4801 14.5745L83.8453 14.3528L83.5156 15.2969L83.1859 16.241L83.8207 16.4626L84.1504 15.5186ZM83.5156 15.2969H82.5156V24.5938H83.5156H84.5156V15.2969H83.5156ZM83.5156 24.5938V23.5938H80.167V24.5938V25.5938H83.5156V24.5938ZM80.167 24.5938H81.167V11.3516H80.167H79.167V24.5938H80.167ZM80.167 11.3516V10.3516H70.4971V11.3516V12.3516H80.167V11.3516Z" fill="#DE8444" mask="url(#path-4-outside-1_3858_82)"/>
<path d="M67.1206 43.702L67.1347 41.4993L67.1487 39.2966H70.497V43.729H80.1668V39.2966H83.5161V43.729H88.5941V47.0803H62.0156V43.729L67.1206 43.702Z" fill="#DE8444"/>
</svg>
