<svg width="150" height="100" viewBox="0 0 150 100" fill="none" xmlns="http://www.w3.org/2000/svg">
<path d="M75 15V23.51ZM66.49 32.02C66.49 34.277 67.3866 36.4415 68.9825 38.0375C70.5784 39.6334 72.743 40.53 75 40.53C77.257 40.53 79.4215 39.6334 81.0175 38.0375C82.6134 36.4415 83.51 34.277 83.51 32.02C83.51 29.763 82.6134 27.5985 81.0175 26.0025C79.4215 24.4066 77.257 23.51 75 23.51C72.743 23.51 70.5784 24.4066 68.9825 26.0025C67.3866 27.5985 66.49 29.763 66.49 32.02Z" fill="#DE8444"/>
<path d="M75 15V23.51M75 23.51C77.257 23.51 79.4215 24.4066 81.0175 26.0025C82.6134 27.5985 83.51 29.763 83.51 32.02C83.51 34.277 82.6134 36.4415 81.0175 38.0375C79.4215 39.6334 77.257 40.53 75 40.53C72.743 40.53 70.5784 39.6334 68.9825 38.0375C67.3866 36.4415 66.49 34.277 66.49 32.02C66.49 29.763 67.3866 27.5985 68.9825 26.0025C70.5784 24.4066 72.743 23.51 75 23.51Z" stroke="#DE8444" stroke-width="5" stroke-linecap="round"/>
<path d="M66.8101 34.3501L49.9268 85.0001ZM83.1901 34.3501L100.073 85.0001Z" fill="#DE8444"/>
<path d="M66.8101 34.3501L49.9268 85.0001M83.1901 34.3501L100.073 85.0001" stroke="#DE8444" stroke-width="5" stroke-linecap="round"/>
<path d="M52.3066 60.3867H97.6933ZM75 54.7134V66.0601Z" fill="#DE8444"/>
<path d="M52.3066 60.3867H97.6933M75 54.7134V66.0601" stroke="#DE8444" stroke-width="5" stroke-linecap="square"/>
</svg>
