<svg width="150" height="100" viewBox="0 0 150 100" fill="none" xmlns="http://www.w3.org/2000/svg">
<path d="M115.072 43.5088C115.705 43.4708 116.734 43.7452 117.359 44.126C118.282 44.6743 117.976 45.1238 115.834 46.3955C114.37 47.2636 112.739 47.9797 112.213 47.9873C111.687 47.9874 109.118 48.9769 106.495 50.1953C103.873 51.4061 101.212 52.9678 100.587 53.6533C99.9618 54.3463 99.1 54.879 98.6807 54.8486C98.2614 54.8106 96.5 56.0829 94.7617 57.667C92.7185 59.5405 90.881 62.2976 89.5469 65.5039C88.4109 68.2228 86.2154 72.8531 84.6602 75.7852C82.9449 79.0293 81.0162 81.5655 79.7354 82.2588C77.7836 83.3174 77.5468 83.2869 76.5176 81.8779C75.9002 81.0403 75.3977 79.6698 75.3975 78.832C75.3898 77.9943 76.5256 75.0772 77.9131 72.3584C79.3083 69.6395 81.0314 66.4635 81.748 65.3135C83.0136 63.28 82.9981 63.1651 81.1455 61.3145C80.1011 60.2635 79.2393 58.9006 79.2393 58.2686C79.2393 57.3013 78.9417 57.2708 77.333 58.0781C76.0676 58.713 74.7591 60.6806 73.4072 63.9805C72.3018 66.6994 70.4108 70.7287 69.2139 72.9297C68.017 75.1303 66.2715 77.3006 65.3262 77.7578C64.3808 78.2072 63.1833 78.3824 62.6572 78.1387C62.1312 77.8873 61.6963 76.4018 61.6963 74.833C61.6887 72.8834 62.52 70.644 64.3115 67.7881C66.8883 63.6756 66.9114 63.5765 65.4629 62.2666C64.6549 61.5354 63.9913 60.0736 63.9912 59.0303C63.9912 57.8727 63.4654 56.9734 62.6572 56.7373C61.9266 56.5244 61.2948 56.441 61.2549 56.5469C61.2168 56.6535 60.1029 58.3755 58.7764 60.3633C57.4501 62.3506 56.025 64.1477 55.6055 64.3613C55.1862 64.5746 54.2407 64.4145 53.5088 64.0186C52.5101 63.4778 51.4574 63.8055 49.2998 65.3516C46.7614 67.1715 46.2123 67.2937 44.5352 66.4561C43.0257 65.6945 42.2484 65.6945 40.6475 66.4561C38.8177 67.3319 38.5044 67.2174 36.8271 65.123C35.2948 63.2039 34.8756 63.0209 34.2275 63.9805C33.8006 64.605 32.8629 66.0671 32.1387 67.2246C31.4144 68.3822 30.4001 69.327 29.874 69.3193C29.3481 69.319 28.9219 68.6256 28.9219 67.7881C28.9223 66.9494 30.2933 62.4798 29.874 62.2666C29.4538 62.0561 27.4047 65.763 27.4199 66.0752C27.4338 66.3882 25.627 67.9257 23.417 69.4863C20.7946 71.3369 18.5303 72.335 16.9141 72.3428C15.2294 72.3504 14.1315 71.863 13.4834 70.8047C12.7744 69.6471 11.4626 69.1517 8.33691 68.8623C6.03583 68.6416 3.88682 68.3145 3.57227 68.124C3.25975 67.9413 3.00012 67.2709 3 66.6465C3 65.7402 3.66335 65.5946 6.24023 65.9678C8.02406 66.2267 10.2498 66.2266 11.1953 65.9678C12.1788 65.7012 13.6433 64.1173 14.6191 62.2666C15.5645 60.4845 16.6774 58.131 17.0967 57.042C17.5238 55.9452 18.8965 53.8891 20.1543 52.4727C21.4123 51.0485 23.6307 49.0992 25.0791 48.1396C26.924 46.9211 28.0749 46.6013 28.8906 47.0811C29.5386 47.4618 30.3323 48.4208 30.6602 49.2129C31.0642 50.1877 30.5757 51.9704 29.1348 54.7578C27.7319 57.4766 25.2085 60.4092 21.6787 63.4326C18.7447 65.9449 16.2598 68.297 16.1514 68.6562C16.0446 69.0142 16.563 69.3115 17.2949 69.3115C18.0268 69.3039 19.7418 68.6182 21.1064 67.7881C22.4711 66.9503 25.727 63.6912 28.3496 60.5459C30.9722 57.4005 33.4576 54.8258 33.877 54.8105C34.2963 54.8029 33.5263 60.2184 33.877 60.5459C34.228 60.8725 36.6524 55.9834 37.5596 55.9834C39.0003 55.9834 39.2366 56.4563 39.4043 59.6016C39.5111 61.5892 39.9381 63.2188 40.3574 63.2188C40.7768 63.2186 41.8208 62.2739 42.667 61.124C43.5208 59.9741 44.2076 58.6874 44.1924 58.2686C44.1695 57.8497 45.1913 56.2202 46.4492 54.6514C47.7224 53.0673 49.4223 51.7949 50.2686 51.7949C51.1072 51.795 52.3959 52.7014 54.4619 55.8086L56.3672 53.8896C57.4193 52.8386 59.5623 51.7648 61.1328 51.5059C63.2979 51.148 64.0833 51.3152 64.373 52.1758C64.5865 52.8078 65.2723 53.3183 65.8975 53.3184C66.5226 53.3184 67.4681 52.6782 67.9941 51.9014C68.5203 51.1169 70.3199 49.563 71.9971 48.4512C73.6742 47.3318 75.649 46.4262 76.3809 46.4414C77.1127 46.4569 78.0269 47.2335 78.4004 48.1777C78.8806 49.3581 78.759 50.4241 78.0195 51.6045C77.433 52.548 77.0368 53.3248 77.1426 53.3262C77.2493 53.3338 79.1327 52.4805 81.3359 51.4219C83.539 50.371 85.5059 49.51 85.7197 49.5098C85.9256 49.5098 86.0855 50.2793 86.0703 51.2236C86.0627 52.168 85.5593 53.7908 84.957 54.8418C84.3549 55.885 83.844 57.088 83.8135 57.5068C83.7906 57.9257 84.5 57.5829 85.4072 56.7451C86.3069 55.9072 88.3811 53.2493 90.0049 50.8428C91.6283 48.4369 93.3048 46.4649 93.7246 46.4639C94.1439 46.4639 94.6623 46.9743 94.8682 47.6064C95.0816 48.2386 94.9908 49.823 94.1064 53.5166L97.918 51.3994C100.015 50.2342 103.445 48.3826 105.542 47.2783C107.639 46.1816 110.384 44.9028 111.642 44.4307C112.9 43.9661 114.447 43.5469 115.072 43.5088ZM113.601 16C113.989 16 114.798 17.1124 115.393 18.4756C115.987 19.839 117.138 22.497 117.946 24.3779C118.762 26.259 120.043 29.518 120.798 31.6123C121.56 33.7065 122.551 35.8313 123.009 36.3418C123.55 36.9358 127.667 37.4082 134.704 37.6748C140.68 37.9032 145.909 38.2535 146.33 38.4668C146.749 38.68 147.009 39.2894 146.902 39.8301C146.796 40.3708 142.854 44.3087 138.135 48.5889C131.701 54.4221 129.558 56.8287 129.55 58.2148C129.55 59.2354 129.931 61.041 130.396 62.2139C130.862 63.3947 131.891 67.0196 132.684 70.2637C133.484 73.508 134.132 77.0193 134.132 78.0703C134.132 79.3393 133.624 80.1006 132.607 80.3545C131.586 80.6134 128.391 78.9836 122.887 75.3965C118.381 72.4568 114.005 70.0657 113.166 70.0732C112.327 70.0885 108.775 72.0688 105.275 74.4678C101.769 76.8665 98.1707 79.3184 97.2705 79.9053C96.3709 80.4993 95.0288 80.7583 94.2969 80.4766C93.5193 80.1796 92.963 79.1821 92.9629 78.0703C92.9629 77.0193 94.0073 72.1367 95.2881 67.2168C96.5689 62.2971 97.7731 57.6667 97.9561 56.9355C98.1466 56.2046 98.726 55.5878 99.252 55.5723C99.778 55.5494 100.632 56.0675 101.158 56.7148C101.928 57.6592 101.874 58.9691 100.906 63.4092C100.243 66.4479 99.7322 69.6163 99.7627 70.4541C99.7932 71.2918 99.9846 72.1452 100.19 72.3584C100.391 72.5697 102.365 71.3285 104.574 69.6084C106.785 67.8873 109.621 65.8692 110.879 65.1152C113.105 63.7825 113.234 63.7906 115.834 65.3594C117.305 66.2428 119.791 67.6665 121.361 68.5195C123.237 69.5399 124.023 70.4007 123.649 71.0176C123.273 71.6421 123.4 71.7691 124.03 71.3984C124.556 71.0863 125.509 71.2617 126.142 71.7871C126.782 72.3126 127.552 72.472 127.857 72.1445C128.162 71.8164 127.789 69.4177 127.034 66.8135C126.272 64.2091 125.327 61.0488 124.945 59.792C124.556 58.5354 124.236 56.7373 124.229 55.793C124.229 54.8258 124.968 53.6223 125.937 53.0283C126.882 52.4489 129.887 49.9199 137.562 42.8535L133.179 42.374C130.77 42.1075 127.339 42.1075 125.555 42.374C123.771 42.6405 121.629 42.5185 120.79 42.0996C119.951 41.6807 118.32 39.0687 117.169 36.2891C116.018 33.5096 115.087 30.6309 115.103 29.8994C115.125 29.1683 114.607 28.1398 113.959 27.6143C112.998 26.8298 112.663 26.8985 112.099 27.9951C111.725 28.7262 111.054 30.6986 110.604 32.374C110.162 34.0495 109.125 36.9671 106.815 42.2754L101.22 43.1963C98.1473 43.7066 92.6271 44.3084 88.96 44.5293C84.8583 44.7806 82.1445 44.6509 81.9082 44.1787C81.7024 43.7598 81.7024 42.9074 81.9082 42.2754C82.1217 41.6433 82.8912 40.9805 83.623 40.79C84.3549 40.5996 88.5639 40.0511 92.9629 39.5713C97.369 39.0915 101.737 38.3906 102.683 38.0098C103.658 37.6214 104.398 36.6699 104.398 35.8018C104.398 34.964 105.054 32.9908 105.862 31.4219C106.67 29.8529 107.845 27.1949 108.478 25.5195C109.11 23.8441 109.82 21.5288 110.063 20.3789C110.3 19.2291 111.039 17.7747 111.694 17.1426C112.358 16.5105 113.212 16 113.601 16ZM86.4092 64.8594C85.6344 64.4458 83.2025 67.4886 80.9775 71.6562C78.7531 75.823 77.5778 79.5363 78.3516 79.9512C79.1263 80.3648 81.5583 77.3218 83.7832 73.1543C86.0081 68.9868 87.1838 65.2731 86.4092 64.8594ZM70.9756 62.6562C70.2007 62.243 68.0021 64.8501 66.0645 68.4795C64.127 72.1087 63.1838 75.3865 63.958 75.8008C64.7327 76.2144 66.9324 73.6072 68.8701 69.9775C70.8079 66.3478 71.7503 63.0699 70.9756 62.6562ZM26.2861 52.1533C25.1594 51.3731 22.8228 52.7959 21.0674 55.3311C19.312 57.8662 18.8029 60.5538 19.9297 61.334C21.0565 62.1137 23.3922 60.6912 25.1475 58.1562C26.9028 55.6211 27.4128 52.9335 26.2861 52.1533ZM50.541 54.2471C49.7235 53.681 48.0046 54.7469 46.7021 56.6279C45.3999 58.5087 45.0071 60.4923 45.8242 61.0586C46.6417 61.6246 48.3607 60.5588 49.6631 58.6777C50.9654 56.7968 51.3585 54.8131 50.541 54.2471ZM74.6748 50.9131C73.5481 50.1329 71.2114 51.5556 69.4561 54.0908C67.7009 56.6259 67.1917 59.3136 68.3184 60.0938C69.4452 60.8734 71.7819 59.4509 73.5371 56.916C75.2924 54.3809 75.8014 51.6934 74.6748 50.9131Z" fill="#DE8444"/>
</svg>
