<svg width="48" height="48" viewBox="0 0 48 48" fill="none" xmlns="http://www.w3.org/2000/svg">
<path d="M14.2229 11.7778C16.9229 11.7778 19.1118 9.58895 19.1118 6.88889C19.1118 4.18883 16.9229 2 14.2229 2C11.5228 2 9.33398 4.18883 9.33398 6.88889C9.33398 9.58895 11.5228 11.7778 14.2229 11.7778Z" stroke="#7467FF" stroke-width="4"/>
<path d="M28.8889 41.1114H10.5556C5.66667 41.1114 2 37.5462 2 32.5558C2 27.5655 5.66667 24.0003 10.5556 24.0003H19.1111H37.4444C42.3333 24.0003 46 20.4351 46 15.4447C46 10.4544 42.3333 6.88916 37.4444 6.88916H19.1111M2 6.88916H9.33333M38.6667 41.1114H46" stroke="#7467FF" stroke-width="4" stroke-linecap="round" stroke-linejoin="round"/>
<path d="M33.7756 46.0002C36.4757 46.0002 38.6645 43.8114 38.6645 41.1113C38.6645 38.4112 36.4757 36.2224 33.7756 36.2224C31.0755 36.2224 28.8867 38.4112 28.8867 41.1113C28.8867 43.8114 31.0755 46.0002 33.7756 46.0002Z" stroke="#7467FF" stroke-width="4"/>
</svg>
