<svg width="56" height="56" viewBox="0 0 56 56" fill="none" xmlns="http://www.w3.org/2000/svg">
<path d="M5.83398 19.1029C6.07665 14.2029 6.80232 11.1463 8.97698 8.97625C11.147 6.80159 14.2037 6.07592 19.1037 5.83325M50.1673 19.1029C49.9246 14.2029 49.199 11.1463 47.0243 8.97625C44.8543 6.80159 41.7976 6.07592 36.8976 5.83325M36.8976 50.1666C41.7976 49.9239 44.8543 49.1983 47.0243 47.0236C49.199 44.8536 49.9246 41.7969 50.1673 36.8969M19.1037 50.1666C14.2037 49.9239 11.147 49.1983 8.97698 47.0236C6.80232 44.8536 6.07665 41.7969 5.83398 36.8969M45.8157 26.4086C46.3827 27.1179 46.6673 27.4749 46.6673 27.9999C46.6673 28.5249 46.3827 28.8819 45.8157 29.5913C43.2653 32.7833 36.753 39.6666 28.0007 39.6666C19.2483 39.6666 12.736 32.7833 10.1857 29.5913C9.61865 28.8819 9.33398 28.5249 9.33398 27.9999C9.33398 27.4749 9.61865 27.1179 10.1857 26.4086C12.736 23.2166 19.2483 16.3333 28.0007 16.3333C36.753 16.3333 43.2653 23.2166 45.8157 26.4086Z" stroke="#7467FF" stroke-width="4" stroke-linecap="round" stroke-linejoin="round"/>
<path d="M32.6673 27.9999C32.6673 26.7622 32.1757 25.5753 31.3005 24.7001C30.4253 23.8249 29.2383 23.3333 28.0007 23.3333C26.763 23.3333 25.576 23.8249 24.7008 24.7001C23.8257 25.5753 23.334 26.7622 23.334 27.9999C23.334 29.2376 23.8257 30.4246 24.7008 31.2997C25.576 32.1749 26.763 32.6666 28.0007 32.6666C29.2383 32.6666 30.4253 32.1749 31.3005 31.2997C32.1757 30.4246 32.6673 29.2376 32.6673 27.9999Z" stroke="#7467FF" stroke-width="4" stroke-linecap="round" stroke-linejoin="round"/>
</svg>
