<svg width="200" height="200" viewBox="0 0 200 200" fill="none" xmlns="http://www.w3.org/2000/svg">
<path d="M100 20C144.183 20 180 55.8172 180 100C180 144.183 144.183 180 100 180C92.4484 180 85.1416 178.953 78.2158 176.997L98.6094 156.604L105.208 163.203L113.384 132.69L82.8711 140.866L89.4697 147.466L64.9854 171.949C59.4406 169.246 54.2554 165.92 49.5195 162.063L128.414 83.1699L135.015 89.7705L143.189 59.2578L112.678 67.4336L119.275 74.0312L40.1836 153.123C36.6332 149.128 33.4775 144.775 30.7764 140.125L77.5713 93.3311L84.1699 99.9297L92.3457 69.417L61.833 77.5928L68.4326 84.1924L24.9258 127.698C21.7404 119.068 20 109.737 20 100C20 55.8172 55.8172 20 100 20Z" fill="#DE8444"/>
</svg>
