<svg width="200" height="200" viewBox="0 0 200 200" fill="none" xmlns="http://www.w3.org/2000/svg">
<path d="M71.2979 120.5C81.0762 121.593 90.8544 122.142 100.633 122.142C109.052 122.142 117.471 121.735 125.891 120.925L165.032 167.872C148.147 184.055 125.235 194 100 194C73.8874 194 50.2627 183.351 33.2285 166.161L71.2979 120.5ZM100 6C151.915 6 194 48.0852 194 100C194 125.568 183.792 148.751 167.229 165.697L140.346 119.135C145.243 118.394 150.141 117.516 155.039 116.501C157.054 116.083 159.069 115.643 161.084 115.179C159.069 114.715 157.054 114.273 155.039 113.855C148.483 112.496 141.926 111.384 135.37 110.516L104.112 56.375C104.113 56.2523 104.114 56.1296 104.114 56.0068C104.114 46.1322 102.747 36.2575 100.013 26.3828C99.7089 25.2856 99.3884 24.188 99.0508 23.0908C98.7132 24.188 98.3927 25.2856 98.0889 26.3828C95.525 35.6413 94.162 44.8997 94.002 54.1582L61.0693 111.198C56.1218 111.944 51.174 112.83 46.2266 113.855C44.2117 114.273 42.1965 114.715 40.1816 115.179C42.1965 115.643 44.2117 116.083 46.2266 116.501C49.771 117.236 53.3159 117.898 56.8604 118.489L30.8037 163.621C15.4043 146.881 6 124.539 6 100C6 48.0852 48.0852 6 100 6ZM98.9609 88.625C98.9911 88.7241 99.0203 88.8238 99.0508 88.9229C99.0651 88.8762 99.0775 88.8289 99.0918 88.7822L115.653 108.646C110.647 108.36 105.64 108.216 100.633 108.216C94.0625 108.216 87.4922 108.463 80.9219 108.957L98.418 87.9736L98.9609 88.625Z" fill="#DE8444"/>
</svg>
