<svg width="209" height="56" viewBox="0 0 209 56" fill="none" xmlns="http://www.w3.org/2000/svg">
<path d="M64.7751 38.2831L74.7591 15.8831H79.8792L89.8951 38.2831H84.4551L76.2631 18.5071H78.3111L70.0871 38.2831H64.7751ZM69.7671 33.4831L71.1432 29.5471H82.6631L84.0711 33.4831H69.7671ZM92.2191 38.2831V15.8831H101.915C103.921 15.8831 105.649 16.2138 107.099 16.8751C108.55 17.5151 109.67 18.4431 110.459 19.6591C111.249 20.8751 111.643 22.3258 111.643 24.0111C111.643 25.6751 111.249 27.1151 110.459 28.3311C109.67 29.5258 108.55 30.4431 107.099 31.0831C105.649 31.7231 103.921 32.0431 101.915 32.0431H95.0991L97.4031 29.7711V38.2831H92.2191ZM106.459 38.2831L100.859 30.1551H106.395L112.059 38.2831H106.459ZM97.4031 30.3471L95.0991 27.9151H101.627C103.227 27.9151 104.422 27.5738 105.211 26.8911C106.001 26.1871 106.395 25.2271 106.395 24.0111C106.395 22.7738 106.001 21.8138 105.211 21.1311C104.422 20.4484 103.227 20.1071 101.627 20.1071H95.0991L97.4031 17.6431V30.3471ZM126.47 38.6671C124.742 38.6671 123.132 38.3898 121.638 37.8351C120.166 37.2591 118.886 36.4484 117.798 35.4031C116.71 34.3578 115.857 33.1311 115.238 31.7231C114.641 30.3151 114.342 28.7684 114.342 27.0831C114.342 25.3978 114.641 23.8511 115.238 22.4431C115.857 21.0351 116.71 19.8084 117.798 18.7631C118.908 17.7178 120.198 16.9178 121.67 16.3631C123.142 15.7871 124.753 15.4991 126.502 15.4991C128.444 15.4991 130.193 15.8404 131.75 16.5231C133.329 17.1844 134.652 18.1658 135.718 19.4671L132.39 22.5391C131.622 21.6644 130.769 21.0138 129.83 20.5871C128.892 20.1391 127.868 19.9151 126.758 19.9151C125.713 19.9151 124.753 20.0858 123.878 20.4271C123.004 20.7684 122.246 21.2591 121.606 21.8991C120.966 22.5391 120.465 23.2964 120.102 24.1711C119.761 25.0458 119.59 26.0164 119.59 27.0831C119.59 28.1498 119.761 29.1204 120.102 29.9951C120.465 30.8698 120.966 31.6271 121.606 32.2671C122.246 32.9071 123.004 33.3978 123.878 33.7391C124.753 34.0804 125.713 34.2511 126.758 34.2511C127.868 34.2511 128.892 34.0378 129.83 33.6111C130.769 33.1631 131.622 32.4911 132.39 31.5951L135.718 34.6671C134.652 35.9684 133.329 36.9604 131.75 37.6431C130.193 38.3258 128.433 38.6671 126.47 38.6671ZM154.579 15.8831H159.763V38.2831H154.579V15.8831ZM144.403 38.2831H139.219V15.8831H144.403V38.2831ZM154.963 29.0991H144.019V24.7151H154.963V29.0991ZM169.831 24.9071H180.615V28.9391H169.831V24.9071ZM170.215 34.1231H182.407V38.2831H165.063V15.8831H181.991V20.0431H170.215V34.1231ZM186.532 38.2831V15.8831H196.228C198.233 15.8831 199.961 16.2138 201.412 16.8751C202.862 17.5151 203.982 18.4431 204.772 19.6591C205.561 20.8751 205.956 22.3258 205.956 24.0111C205.956 25.6751 205.561 27.1151 204.772 28.3311C203.982 29.5258 202.862 30.4431 201.412 31.0831C199.961 31.7231 198.233 32.0431 196.228 32.0431H189.412L191.716 29.7711V38.2831H186.532ZM200.772 38.2831L195.172 30.1551H200.708L206.372 38.2831H200.772ZM191.716 30.3471L189.412 27.9151H195.94C197.54 27.9151 198.734 27.5738 199.524 26.8911C200.313 26.1871 200.708 25.2271 200.708 24.0111C200.708 22.7738 200.313 21.8138 199.524 21.1311C198.734 20.4484 197.54 20.1071 195.94 20.1071H189.412L191.716 17.6431V30.3471Z" fill="white"/>
<path d="M18.5303 35.209C21.7498 35.6068 24.969 35.8086 28.1885 35.8086C31.0062 35.8086 33.8238 35.6534 36.6416 35.3486L47.3701 48.2168C42.3405 53.0371 35.5166 56 28 56C20.2218 56 13.1853 52.8275 8.11133 47.707L18.5303 35.209ZM28 0C43.464 0 56 12.536 56 28C56 35.6157 52.9577 42.5196 48.0244 47.5674L40.6592 34.8115C41.9042 34.6129 43.1495 34.3861 44.3945 34.1279C44.9947 34.0035 45.5951 33.8726 46.1953 33.7344C45.5951 33.5961 44.9947 33.4643 44.3945 33.3398C42.695 32.9875 40.9954 32.6907 39.2959 32.4492L29.2246 15.0049C29.2247 14.9685 29.2256 14.9319 29.2256 14.8955C29.2256 11.9542 28.8184 9.01264 28.0039 6.07129C27.9134 5.7445 27.8173 5.41761 27.7168 5.09082C27.6163 5.41759 27.5212 5.74452 27.4307 6.07129C26.6671 8.82873 26.2607 11.5863 26.2129 14.3438L15.6318 32.6699C14.4155 32.8653 13.1988 33.0877 11.9824 33.3398C11.3822 33.4643 10.7818 33.5961 10.1816 33.7344C10.7818 33.8726 11.3822 34.0035 11.9824 34.1279C12.8257 34.3028 13.6694 34.4618 14.5127 34.6094L7.38867 46.9502C2.80174 41.9638 0 35.3094 0 28C0 12.536 12.536 0 28 0ZM27.6914 24.6133C27.7002 24.6421 27.7079 24.6713 27.7168 24.7002C27.7211 24.6863 27.7243 24.6721 27.7285 24.6582L33.7314 31.8574C31.8838 31.7264 30.0361 31.6602 28.1885 31.6602C25.8695 31.6602 23.5505 31.7633 21.2314 31.9697L27.5283 24.418L27.6914 24.6133Z" fill="#DE8444"/>
</svg>
