<svg width="209" height="56" viewBox="0 0 209 56" fill="none" xmlns="http://www.w3.org/2000/svg">
<path d="M64.7752 38.2832L74.7592 15.8832H79.8792L89.8952 38.2832H84.4552L76.2632 18.5072H78.3112L70.0872 38.2832H64.7752ZM69.7672 33.4832L71.1432 29.5472H82.6632L84.0712 33.4832H69.7672ZM92.2192 38.2832V15.8832H101.915C103.921 15.8832 105.649 16.2139 107.099 16.8752C108.55 17.5152 109.67 18.4432 110.459 19.6592C111.249 20.8752 111.643 22.3259 111.643 24.0112C111.643 25.6752 111.249 27.1152 110.459 28.3312C109.67 29.5259 108.55 30.4432 107.099 31.0832C105.649 31.7232 103.921 32.0432 101.915 32.0432H95.0992L97.4032 29.7712V38.2832H92.2192ZM106.459 38.2832L100.859 30.1552H106.395L112.059 38.2832H106.459ZM97.4032 30.3472L95.0992 27.9152H101.627C103.227 27.9152 104.422 27.5739 105.211 26.8912C106.001 26.1872 106.395 25.2272 106.395 24.0112C106.395 22.7739 106.001 21.8139 105.211 21.1312C104.422 20.4485 103.227 20.1072 101.627 20.1072H95.0992L97.4032 17.6432V30.3472ZM126.47 38.6672C124.742 38.6672 123.132 38.3899 121.638 37.8352C120.166 37.2592 118.886 36.4485 117.798 35.4032C116.71 34.3579 115.857 33.1312 115.238 31.7232C114.641 30.3152 114.342 28.7685 114.342 27.0832C114.342 25.3979 114.641 23.8512 115.238 22.4432C115.857 21.0352 116.71 19.8085 117.798 18.7632C118.908 17.7179 120.198 16.9179 121.67 16.3632C123.142 15.7872 124.753 15.4992 126.502 15.4992C128.444 15.4992 130.193 15.8405 131.75 16.5232C133.329 17.1845 134.652 18.1659 135.718 19.4672L132.39 22.5392C131.622 21.6645 130.769 21.0139 129.83 20.5872C128.892 20.1392 127.868 19.9152 126.758 19.9152C125.713 19.9152 124.753 20.0859 123.878 20.4272C123.004 20.7685 122.246 21.2592 121.606 21.8992C120.966 22.5392 120.465 23.2965 120.102 24.1712C119.761 25.0459 119.59 26.0165 119.59 27.0832C119.59 28.1499 119.761 29.1205 120.102 29.9952C120.465 30.8699 120.966 31.6272 121.606 32.2672C122.246 32.9072 123.004 33.3979 123.878 33.7392C124.753 34.0805 125.713 34.2512 126.758 34.2512C127.868 34.2512 128.892 34.0379 129.83 33.6112C130.769 33.1632 131.622 32.4912 132.39 31.5952L135.718 34.6672C134.652 35.9685 133.329 36.9605 131.75 37.6432C130.193 38.3259 128.433 38.6672 126.47 38.6672ZM154.579 15.8832H159.763V38.2832H154.579V15.8832ZM144.403 38.2832H139.219V15.8832H144.403V38.2832ZM154.963 29.0992H144.019V24.7152H154.963V29.0992ZM169.831 24.9072H180.615V28.9392H169.831V24.9072ZM170.215 34.1232H182.407V38.2832H165.063V15.8832H181.991V20.0432H170.215V34.1232ZM186.532 38.2832V15.8832H196.228C198.233 15.8832 199.961 16.2139 201.412 16.8752C202.862 17.5152 203.982 18.4432 204.772 19.6592C205.561 20.8752 205.956 22.3259 205.956 24.0112C205.956 25.6752 205.561 27.1152 204.772 28.3312C203.982 29.5259 202.862 30.4432 201.412 31.0832C199.961 31.7232 198.233 32.0432 196.228 32.0432H189.412L191.716 29.7712V38.2832H186.532ZM200.772 38.2832L195.172 30.1552H200.708L206.372 38.2832H200.772ZM191.716 30.3472L189.412 27.9152H195.94C197.54 27.9152 198.734 27.5739 199.524 26.8912C200.313 26.1872 200.708 25.2272 200.708 24.0112C200.708 22.7739 200.313 21.8139 199.524 21.1312C198.734 20.4485 197.54 20.1072 195.94 20.1072H189.412L191.716 17.6432V30.3472Z" fill="white"/>
<path d="M28 0C43.464 0 56 12.536 56 28C56 43.464 43.464 56 28 56C25.357 56 22.7999 55.6326 20.376 54.9482L27.5127 47.8125L29.8223 50.1211L32.6846 39.4424L22.0049 42.3037L24.3145 44.6133L15.7461 53.1816C13.8051 52.2354 11.9898 51.0717 10.332 49.7217L37.9453 22.1094L40.2549 24.4189L43.1162 13.7402L32.4375 16.6016L34.7471 18.9102L7.06543 46.5908C5.6614 45.0109 4.43214 43.2724 3.41113 41.4033L19.1494 25.666L21.459 27.9756L24.3213 17.2959L13.6416 20.1582L15.9512 22.4678L1.46191 36.9561C0.513295 34.1441 0 31.132 0 28C0 12.536 12.536 0 28 0Z" fill="#DE8444"/>
</svg>
