<svg width="209" height="56" viewBox="0 0 209 56" fill="none" xmlns="http://www.w3.org/2000/svg">
<path d="M63.0472 38.2832L77.5112 15.8832H82.6632L88.1672 38.2832H82.9832L78.6312 18.4432H80.6792L68.5832 38.2832H63.0472ZM69.0312 33.4832L71.1432 29.5472H82.6952L83.3032 33.4832H69.0312ZM90.4912 38.2832L94.9712 15.8832H104.091C106.886 15.8832 109.041 16.4912 110.555 17.7072C112.091 18.9232 112.859 20.6299 112.859 22.8272C112.859 24.7045 112.411 26.3365 111.515 27.7232C110.641 29.0885 109.382 30.1445 107.739 30.8912C106.118 31.6379 104.198 32.0112 101.979 32.0112H94.6832L97.4032 29.7392L95.7072 38.2832H90.4912ZM104.891 38.2832L100.315 30.1552H105.755L110.363 38.2832H104.891ZM97.2752 30.3472L95.4832 27.8832H102.171C103.899 27.8832 105.233 27.4992 106.171 26.7312C107.131 25.9419 107.611 24.8005 107.611 23.3072C107.611 22.2192 107.238 21.4192 106.491 20.9072C105.766 20.3739 104.742 20.1072 103.419 20.1072H97.1152L99.8352 17.5792L97.2752 30.3472ZM125.798 38.6672C123.516 38.6672 121.542 38.2619 119.878 37.4512C118.236 36.6192 116.966 35.4779 116.07 34.0272C115.174 32.5552 114.726 30.8592 114.726 28.9392C114.726 27.0405 115.057 25.2699 115.718 23.6272C116.401 21.9845 117.35 20.5659 118.566 19.3712C119.804 18.1552 121.265 17.2059 122.95 16.5232C124.657 15.8405 126.556 15.4992 128.646 15.4992C130.652 15.4992 132.422 15.8405 133.958 16.5232C135.494 17.2059 136.657 18.1872 137.446 19.4672L133.702 22.5392C133.126 21.6859 132.39 21.0352 131.494 20.5872C130.598 20.1392 129.532 19.9152 128.294 19.9152C127.036 19.9152 125.894 20.1392 124.87 20.5872C123.846 21.0139 122.961 21.6325 122.214 22.4432C121.489 23.2325 120.934 24.1605 120.55 25.2272C120.166 26.2939 119.974 27.4245 119.974 28.6192C119.974 29.7499 120.22 30.7419 120.71 31.5952C121.201 32.4272 121.916 33.0779 122.854 33.5472C123.793 34.0165 124.924 34.2512 126.246 34.2512C127.398 34.2512 128.476 34.0485 129.478 33.6432C130.481 33.2165 131.388 32.5552 132.198 31.6592L135.27 34.7952C134.097 36.1605 132.7 37.1525 131.078 37.7712C129.478 38.3685 127.718 38.6672 125.798 38.6672ZM157.331 15.8832H162.515L158.035 38.2832H152.851L157.331 15.8832ZM142.707 38.2832H137.491L141.971 15.8832H147.187L142.707 38.2832ZM155.091 29.0992H144.179L145.043 24.7152H155.955L155.091 29.0992ZM170.791 24.9072H181.575L180.775 28.9392H169.991L170.791 24.9072ZM169.319 34.1232H181.543L180.679 38.2832H163.335L167.815 15.8832H184.743L183.879 20.0432H172.135L169.319 34.1232ZM184.804 38.2832L189.284 15.8832H198.404C201.198 15.8832 203.353 16.4912 204.868 17.7072C206.404 18.9232 207.172 20.6299 207.172 22.8272C207.172 24.7045 206.724 26.3365 205.828 27.7232C204.953 29.0885 203.694 30.1445 202.052 30.8912C200.43 31.6379 198.51 32.0112 196.292 32.0112H188.996L191.716 29.7392L190.02 38.2832H184.804ZM199.204 38.2832L194.628 30.1552H200.068L204.676 38.2832H199.204ZM191.588 30.3472L189.796 27.8832H196.484C198.212 27.8832 199.545 27.4992 200.484 26.7312C201.444 25.9419 201.924 24.8005 201.924 23.3072C201.924 22.2192 201.55 21.4192 200.804 20.9072C200.078 20.3739 199.054 20.1072 197.732 20.1072H191.428L194.148 17.5792L191.588 30.3472Z" fill="white"/>
<path d="M28 0C43.464 0 56 12.536 56 28C56 43.464 43.464 56 28 56C25.357 56 22.7999 55.6326 20.376 54.9482L27.5127 47.8125L29.8223 50.1211L32.6846 39.4424L22.0049 42.3037L24.3145 44.6133L15.7461 53.1816C13.8051 52.2354 11.9898 51.0717 10.332 49.7217L37.9453 22.1094L40.2549 24.4189L43.1162 13.7402L32.4375 16.6016L34.7471 18.9102L7.06543 46.5908C5.82297 45.1927 4.71776 43.6703 3.77246 42.043L20.1504 25.666L22.459 27.9756L25.3213 17.2959L14.6416 20.1582L16.9512 22.4678L1.72461 37.6934C0.60991 34.6728 0 31.4077 0 28C0 12.536 12.536 0 28 0Z" fill="#DE8444"/>
</svg>
